<svg width="794" height="479" viewBox="0 0 794 479" fill="none" xmlns="http://www.w3.org/2000/svg">
<path d="M179 75.5C179 117.197 145.197 151 103.5 151C61.8025 151 28 117.197 28 75.5C28 33.8025 61.8025 0 103.5 0C145.197 0 179 33.8025 179 75.5Z" fill="url(#paint0_linear_2_79)"/>
<path d="M615 75.5C615 117.197 648.802 151 690.5 151C732.198 151 766 117.197 766 75.5C766 33.8025 732.198 0 690.5 0C648.802 0 615 33.8025 615 75.5Z" fill="url(#paint1_linear_2_79)"/>
<path d="M0 201C0 173.386 22.3858 151 50 151H202C229.614 151 252 173.386 252 201V371C252 373.761 249.761 376 247 376H5C2.23857 376 0 373.761 0 371V201Z" fill="url(#paint2_linear_2_79)"/>
<path d="M794 201C794 173.386 771.614 151 744 151H592C564.386 151 542 173.386 542 201V371C542 373.761 544.239 376 547 376H789C791.761 376 794 373.761 794 371V201Z" fill="url(#paint3_linear_2_79)"/>
<path d="M205 151H397V182H205V151Z" fill="url(#paint4_linear_2_79)"/>
<path d="M589 151H397V182H589V151Z" fill="url(#paint5_linear_2_79)"/>
<path d="M0 198H397V229H0V198Z" fill="url(#paint6_linear_2_79)"/>
<path d="M794 198H397V229H794V198Z" fill="url(#paint7_linear_2_79)"/>
<path d="M204.926 429.11V455.144C201.54 457.605 197.919 459.451 194.063 460.682C190.238 461.881 186.037 462.48 181.459 462.48C176.035 462.48 171.144 461.644 166.786 459.972C162.429 458.268 158.698 455.901 155.594 452.872C152.521 449.811 150.154 446.15 148.492 441.89C146.831 437.63 146 432.944 146 427.832C146 422.657 146.799 417.939 148.398 413.679C150.029 409.419 152.333 405.774 155.312 402.745C158.29 399.684 161.911 397.317 166.175 395.645C170.439 393.972 175.205 393.136 180.472 393.136C183.137 393.136 185.613 393.341 187.902 393.751C190.191 394.13 192.307 394.698 194.251 395.455C196.195 396.181 197.998 397.081 199.659 398.153C201.321 399.195 202.873 400.378 204.315 401.703L201.728 405.869C201.321 406.5 200.788 406.91 200.129 407.1C199.502 407.257 198.797 407.1 198.013 406.626C197.261 406.184 196.399 405.648 195.427 405.017C194.455 404.386 193.263 403.786 191.853 403.218C190.473 402.619 188.827 402.114 186.915 401.703C185.033 401.293 182.792 401.088 180.19 401.088C176.396 401.088 172.963 401.719 169.89 402.982C166.818 404.212 164.2 405.995 162.037 408.33C159.873 410.634 158.212 413.442 157.052 416.756C155.892 420.038 155.312 423.73 155.312 427.832C155.312 432.092 155.907 435.91 157.099 439.287C158.321 442.632 160.046 445.487 162.272 447.854C164.529 450.189 167.257 451.972 170.455 453.203C173.653 454.434 177.242 455.049 181.224 455.049C184.359 455.049 187.134 454.702 189.548 454.008C191.994 453.282 194.376 452.288 196.696 451.026V436.115H186.209C185.613 436.115 185.127 435.942 184.751 435.595C184.406 435.248 184.234 434.822 184.234 434.317V429.11H204.926Z" fill="url(#paint8_linear_2_79)"/>
<path d="M248.25 432.518C248.25 430.561 247.967 428.779 247.403 427.169C246.87 425.528 246.071 424.124 245.005 422.956C243.97 421.757 242.7 420.842 241.195 420.211C239.69 419.548 237.982 419.217 236.069 419.217C232.056 419.217 228.874 420.4 226.523 422.767C224.203 425.102 222.76 428.353 222.196 432.518H248.25ZM255.022 455.002C253.987 456.264 252.749 457.368 251.306 458.315C249.864 459.23 248.312 459.987 246.651 460.587C245.02 461.187 243.327 461.628 241.572 461.912C239.816 462.228 238.076 462.386 236.351 462.386C233.06 462.386 230.018 461.834 227.228 460.729C224.469 459.593 222.071 457.952 220.033 455.806C218.026 453.629 216.459 450.947 215.33 447.76C214.201 444.572 213.637 440.912 213.637 436.778C213.637 433.433 214.138 430.309 215.142 427.406C216.176 424.503 217.65 421.994 219.562 419.88C221.475 417.734 223.811 416.061 226.57 414.862C229.329 413.632 232.432 413.016 235.881 413.016C238.734 413.016 241.368 413.505 243.782 414.484C246.227 415.43 248.328 416.819 250.084 418.649C251.871 420.448 253.266 422.688 254.269 425.371C255.272 428.021 255.774 431.051 255.774 434.459C255.774 435.784 255.633 436.668 255.351 437.109C255.069 437.551 254.536 437.772 253.752 437.772H221.914C222.008 440.801 222.415 443.436 223.137 445.677C223.889 447.917 224.924 449.795 226.24 451.31C227.557 452.793 229.125 453.913 230.943 454.67C232.762 455.396 234.8 455.759 237.057 455.759C239.157 455.759 240.96 455.522 242.465 455.049C244.001 454.544 245.318 454.008 246.416 453.44C247.513 452.872 248.422 452.351 249.143 451.878C249.896 451.373 250.538 451.12 251.071 451.12C251.761 451.12 252.294 451.388 252.67 451.925L255.022 455.002Z" fill="url(#paint9_linear_2_79)"/>
<path d="M280.315 462.48C276.552 462.48 273.652 461.423 271.615 459.309C269.608 457.195 268.605 454.15 268.605 450.174V420.826H262.867C262.366 420.826 261.942 420.684 261.598 420.4C261.253 420.085 261.08 419.612 261.08 418.98V415.62L268.887 414.626L270.815 399.81C270.909 399.337 271.113 398.958 271.426 398.674C271.771 398.359 272.21 398.201 272.743 398.201H276.976V414.72H290.755V420.826H276.976V449.606C276.976 451.625 277.462 453.124 278.434 454.102C279.406 455.081 280.66 455.57 282.196 455.57C283.074 455.57 283.826 455.459 284.453 455.238C285.112 454.986 285.676 454.718 286.146 454.434C286.617 454.15 287.008 453.897 287.322 453.676C287.667 453.424 287.965 453.298 288.216 453.298C288.654 453.298 289.046 453.566 289.391 454.102L291.837 458.126C290.394 459.483 288.654 460.555 286.617 461.344C284.579 462.102 282.478 462.48 280.315 462.48Z" fill="url(#paint10_linear_2_79)"/>
<path d="M368.162 401.609H346.341V461.723H337.264V401.609H315.396V393.893H368.162V401.609Z" fill="url(#paint11_linear_2_79)"/>
<path d="M384.786 413.016C388.267 413.016 391.402 413.6 394.192 414.768C396.982 415.935 399.365 417.592 401.34 419.738C403.316 421.884 404.82 424.487 405.855 427.548C406.921 430.577 407.454 433.97 407.454 437.725C407.454 441.511 406.921 444.919 405.855 447.949C404.82 450.978 403.316 453.566 401.34 455.712C399.365 457.857 396.982 459.514 394.192 460.682C391.402 461.818 388.267 462.386 384.786 462.386C381.275 462.386 378.108 461.818 375.287 460.682C372.496 459.514 370.114 457.857 368.138 455.712C366.163 453.566 364.643 450.978 363.577 447.949C362.542 444.919 362.025 441.511 362.025 437.725C362.025 433.97 362.542 430.577 363.577 427.548C364.643 424.487 366.163 421.884 368.138 419.738C370.114 417.592 372.496 415.935 375.287 414.768C378.108 413.6 381.275 413.016 384.786 413.016ZM384.786 455.806C389.489 455.806 393.001 454.229 395.321 451.073C397.641 447.886 398.801 443.452 398.801 437.772C398.801 432.06 397.641 427.611 395.321 424.424C393.001 421.237 389.489 419.643 384.786 419.643C382.404 419.643 380.319 420.053 378.532 420.874C376.776 421.694 375.302 422.878 374.111 424.424C372.951 425.97 372.073 427.879 371.477 430.151C370.913 432.392 370.631 434.932 370.631 437.772C370.631 443.452 371.791 447.886 374.111 451.073C376.462 454.229 380.021 455.806 384.786 455.806Z" fill="url(#paint12_linear_2_79)"/>
<path d="M434.397 438.293C436.09 438.293 437.579 438.056 438.865 437.583C440.15 437.109 441.232 436.447 442.109 435.595C442.987 434.743 443.646 433.733 444.085 432.565C444.524 431.366 444.743 430.057 444.743 428.637C444.743 425.702 443.85 423.367 442.062 421.631C440.307 419.896 437.751 419.028 434.397 419.028C431.011 419.028 428.424 419.896 426.637 421.631C424.881 423.367 424.004 425.702 424.004 428.637C424.004 430.057 424.223 431.366 424.662 432.565C425.132 433.733 425.806 434.743 426.684 435.595C427.562 436.447 428.644 437.109 429.929 437.583C431.215 438.056 432.704 438.293 434.397 438.293ZM449.493 464.326C449.493 463.159 449.164 462.212 448.505 461.486C447.847 460.761 446.953 460.193 445.825 459.782C444.727 459.372 443.442 459.088 441.968 458.93C440.495 458.741 438.927 458.599 437.266 458.504C435.635 458.41 433.974 458.315 432.281 458.22C430.588 458.126 428.957 457.968 427.39 457.747C425.634 458.567 424.192 459.609 423.063 460.871C421.966 462.102 421.417 463.553 421.417 465.226C421.417 466.299 421.684 467.293 422.217 468.208C422.781 469.155 423.627 469.959 424.756 470.622C425.885 471.316 427.296 471.853 428.989 472.231C430.713 472.641 432.735 472.847 435.055 472.847C437.313 472.847 439.335 472.641 441.122 472.231C442.909 471.821 444.414 471.237 445.637 470.48C446.891 469.723 447.847 468.823 448.505 467.782C449.164 466.74 449.493 465.589 449.493 464.326ZM458.005 415.667V418.791C458.005 419.832 457.347 420.495 456.03 420.779L450.622 421.489C451.688 423.572 452.221 425.875 452.221 428.4C452.221 430.735 451.766 432.865 450.857 434.79C449.979 436.683 448.756 438.309 447.189 439.665C445.621 441.022 443.74 442.064 441.545 442.789C439.35 443.515 436.968 443.878 434.397 443.878C432.171 443.878 430.07 443.61 428.095 443.073C427.092 443.705 426.324 444.383 425.791 445.109C425.258 445.803 424.991 446.513 424.991 447.239C424.991 448.375 425.446 449.243 426.355 449.842C427.296 450.41 428.518 450.82 430.023 451.073C431.528 451.325 433.237 451.483 435.149 451.546C437.093 451.609 439.068 451.72 441.075 451.878C443.113 452.004 445.088 452.24 447 452.588C448.944 452.935 450.669 453.503 452.173 454.292C453.678 455.081 454.885 456.169 455.795 457.558C456.735 458.946 457.206 460.745 457.206 462.954C457.206 465.005 456.688 466.993 455.654 468.918C454.65 470.843 453.192 472.547 451.28 474.03C449.367 475.545 447.016 476.744 444.226 477.627C441.467 478.542 438.347 479 434.867 479C431.387 479 428.346 478.653 425.744 477.959C423.141 477.264 420.978 476.334 419.254 475.166C417.529 473.998 416.228 472.641 415.35 471.095C414.504 469.581 414.081 467.987 414.081 466.314C414.081 463.948 414.817 461.944 416.291 460.303C417.764 458.662 419.787 457.353 422.358 456.374C420.947 455.743 419.818 454.907 418.972 453.866C418.156 452.793 417.749 451.357 417.749 449.558C417.749 448.864 417.874 448.154 418.125 447.428C418.376 446.671 418.752 445.929 419.254 445.203C419.787 444.446 420.429 443.736 421.182 443.073C421.934 442.411 422.812 441.827 423.815 441.322C421.464 439.997 419.63 438.245 418.313 436.068C416.996 433.859 416.338 431.303 416.338 428.4C416.338 426.065 416.777 423.951 417.655 422.057C418.564 420.132 419.818 418.507 421.417 417.182C423.016 415.825 424.913 414.783 427.107 414.058C429.333 413.332 431.763 412.969 434.397 412.969C436.466 412.969 438.394 413.206 440.181 413.679C441.968 414.121 443.599 414.783 445.072 415.667H458.005Z" fill="url(#paint13_linear_2_79)"/>
<path d="M497.811 432.518C497.811 430.561 497.529 428.779 496.965 427.169C496.432 425.528 495.632 424.124 494.566 422.956C493.532 421.757 492.262 420.842 490.757 420.211C489.252 419.548 487.544 419.217 485.631 419.217C481.618 419.217 478.436 420.4 476.084 422.767C473.764 425.102 472.322 428.353 471.758 432.518H497.811ZM504.583 455.002C503.549 456.264 502.31 457.368 500.868 458.315C499.426 459.23 497.874 459.987 496.212 460.587C494.582 461.187 492.889 461.628 491.133 461.912C489.378 462.228 487.638 462.386 485.913 462.386C482.621 462.386 479.58 461.834 476.79 460.729C474.031 459.593 471.632 457.952 469.594 455.806C467.588 453.629 466.02 450.947 464.892 447.76C463.763 444.572 463.199 440.912 463.199 436.778C463.199 433.433 463.7 430.309 464.704 427.406C465.738 424.503 467.212 421.994 469.124 419.88C471.037 417.734 473.372 416.061 476.131 414.862C478.89 413.632 481.994 413.016 485.443 413.016C488.296 413.016 490.93 413.505 493.344 414.484C495.789 415.43 497.89 416.819 499.646 418.649C501.433 420.448 502.828 422.688 503.831 425.371C504.834 428.021 505.336 431.051 505.336 434.459C505.336 435.784 505.195 436.668 504.913 437.109C504.631 437.551 504.098 437.772 503.314 437.772H471.476C471.57 440.801 471.977 443.436 472.698 445.677C473.451 447.917 474.485 449.795 475.802 451.31C477.119 452.793 478.687 453.913 480.505 454.67C482.323 455.396 484.361 455.759 486.619 455.759C488.719 455.759 490.522 455.522 492.027 455.049C493.563 454.544 494.88 454.008 495.977 453.44C497.075 452.872 497.984 452.351 498.705 451.878C499.457 451.373 500.1 451.12 500.633 451.12C501.323 451.12 501.856 451.388 502.232 451.925L504.583 455.002Z" fill="url(#paint14_linear_2_79)"/>
<path d="M529.877 462.48C526.114 462.48 523.214 461.423 521.176 459.309C519.17 457.195 518.167 454.15 518.167 450.174V420.826H512.429C511.927 420.826 511.504 420.684 511.159 420.4C510.814 420.085 510.642 419.612 510.642 418.98V415.62L518.449 414.626L520.377 399.81C520.471 399.337 520.675 398.958 520.988 398.674C521.333 398.359 521.772 398.201 522.305 398.201H526.538V414.72H540.317V420.826H526.538V449.606C526.538 451.625 527.023 453.124 527.995 454.102C528.967 455.081 530.221 455.57 531.758 455.57C532.636 455.57 533.388 455.459 534.015 455.238C534.673 454.986 535.238 454.718 535.708 454.434C536.178 454.15 536.57 453.897 536.884 453.676C537.229 453.424 537.527 453.298 537.777 453.298C538.216 453.298 538.608 453.566 538.953 454.102L541.398 458.126C539.956 459.483 538.216 460.555 536.178 461.344C534.14 462.102 532.04 462.48 529.877 462.48Z" fill="url(#paint15_linear_2_79)"/>
<path d="M557.378 420.164C559.416 417.986 561.674 416.251 564.151 414.957C566.627 413.663 569.48 413.016 572.71 413.016C575.312 413.016 577.601 413.458 579.576 414.342C581.582 415.194 583.244 416.424 584.561 418.034C585.909 419.612 586.928 421.521 587.618 423.761C588.307 426.002 588.652 428.479 588.652 431.193V461.723H580.234V431.193C580.234 427.564 579.403 424.755 577.742 422.767C576.111 420.748 573.619 419.738 570.264 419.738C567.787 419.738 565.467 420.337 563.304 421.536C561.172 422.736 559.197 424.361 557.378 426.412V461.723H548.96V392H557.378V420.164Z" fill="url(#paint16_linear_2_79)"/>
<path d="M633.293 432.518C633.293 430.561 633.011 428.779 632.447 427.169C631.914 425.528 631.114 424.124 630.048 422.956C629.014 421.757 627.744 420.842 626.239 420.211C624.734 419.548 623.025 419.217 621.113 419.217C617.1 419.217 613.917 420.4 611.566 422.767C609.246 425.102 607.804 428.353 607.239 432.518H633.293ZM640.065 455.002C639.031 456.264 637.792 457.368 636.35 458.315C634.908 459.23 633.356 459.987 631.694 460.587C630.064 461.187 628.371 461.628 626.615 461.912C624.859 462.228 623.119 462.386 621.395 462.386C618.103 462.386 615.062 461.834 612.271 460.729C609.513 459.593 607.114 457.952 605.076 455.806C603.07 453.629 601.502 450.947 600.373 447.76C599.245 444.572 598.68 440.912 598.68 436.778C598.68 433.433 599.182 430.309 600.185 427.406C601.22 424.503 602.693 421.994 604.606 419.88C606.518 417.734 608.854 416.061 611.613 414.862C614.372 413.632 617.476 413.016 620.925 413.016C623.778 413.016 626.411 413.505 628.825 414.484C631.271 415.43 633.371 416.819 635.127 418.649C636.914 420.448 638.309 422.688 639.313 425.371C640.316 428.021 640.818 431.051 640.818 434.459C640.818 435.784 640.677 436.668 640.394 437.109C640.112 437.551 639.579 437.772 638.795 437.772H606.957C607.051 440.801 607.459 443.436 608.18 445.677C608.932 447.917 609.967 449.795 611.284 451.31C612.601 452.793 614.168 453.913 615.987 454.67C617.805 455.396 619.843 455.759 622.1 455.759C624.201 455.759 626.004 455.522 627.509 455.049C629.045 454.544 630.362 454.008 631.459 453.44C632.556 452.872 633.466 452.351 634.187 451.878C634.939 451.373 635.582 451.12 636.115 451.12C636.805 451.12 637.338 451.388 637.714 451.925L640.065 455.002Z" fill="url(#paint17_linear_2_79)"/>
<path d="M659.048 423.382C660.552 420.101 662.402 417.545 664.597 415.714C666.792 413.853 669.472 412.922 672.639 412.922C673.642 412.922 674.598 413.032 675.508 413.253C676.448 413.474 677.279 413.821 678 414.294L677.389 420.59C677.201 421.379 676.73 421.773 675.978 421.773C675.539 421.773 674.896 421.678 674.05 421.489C673.203 421.3 672.247 421.205 671.181 421.205C669.676 421.205 668.328 421.426 667.136 421.868C665.976 422.31 664.926 422.972 663.986 423.856C663.076 424.708 662.246 425.781 661.493 427.075C660.772 428.337 660.114 429.788 659.518 431.429V461.723H651.1V413.774H655.897C656.806 413.774 657.433 413.947 657.778 414.294C658.123 414.641 658.358 415.241 658.483 416.093L659.048 423.382Z" fill="url(#paint18_linear_2_79)"/>
<defs>
<linearGradient id="paint0_linear_2_79" x1="652" y1="-14.5" x2="196" y2="381" gradientUnits="userSpaceOnUse">
<stop offset="0.514423" stop-color="#48FAE8"/>
<stop offset="1" stop-color="#E631FA"/>
</linearGradient>
<linearGradient id="paint1_linear_2_79" x1="652" y1="-14.5" x2="196" y2="381" gradientUnits="userSpaceOnUse">
<stop offset="0.514423" stop-color="#48FAE8"/>
<stop offset="1" stop-color="#E631FA"/>
</linearGradient>
<linearGradient id="paint2_linear_2_79" x1="652" y1="-14.5" x2="196" y2="381" gradientUnits="userSpaceOnUse">
<stop offset="0.514423" stop-color="#48FAE8"/>
<stop offset="1" stop-color="#E631FA"/>
</linearGradient>
<linearGradient id="paint3_linear_2_79" x1="652" y1="-14.5" x2="196" y2="381" gradientUnits="userSpaceOnUse">
<stop offset="0.514423" stop-color="#48FAE8"/>
<stop offset="1" stop-color="#E631FA"/>
</linearGradient>
<linearGradient id="paint4_linear_2_79" x1="652" y1="-14.5" x2="196" y2="381" gradientUnits="userSpaceOnUse">
<stop offset="0.514423" stop-color="#48FAE8"/>
<stop offset="1" stop-color="#E631FA"/>
</linearGradient>
<linearGradient id="paint5_linear_2_79" x1="652" y1="-14.5" x2="196" y2="381" gradientUnits="userSpaceOnUse">
<stop offset="0.514423" stop-color="#48FAE8"/>
<stop offset="1" stop-color="#E631FA"/>
</linearGradient>
<linearGradient id="paint6_linear_2_79" x1="652" y1="-14.5" x2="196" y2="381" gradientUnits="userSpaceOnUse">
<stop offset="0.514423" stop-color="#48FAE8"/>
<stop offset="1" stop-color="#E631FA"/>
</linearGradient>
<linearGradient id="paint7_linear_2_79" x1="652" y1="-14.5" x2="196" y2="381" gradientUnits="userSpaceOnUse">
<stop offset="0.514423" stop-color="#48FAE8"/>
<stop offset="1" stop-color="#E631FA"/>
</linearGradient>
<linearGradient id="paint8_linear_2_79" x1="652" y1="-14.5" x2="196" y2="381" gradientUnits="userSpaceOnUse">
<stop offset="0.514423" stop-color="#48FAE8"/>
<stop offset="1" stop-color="#E631FA"/>
</linearGradient>
<linearGradient id="paint9_linear_2_79" x1="652" y1="-14.5" x2="196" y2="381" gradientUnits="userSpaceOnUse">
<stop offset="0.514423" stop-color="#48FAE8"/>
<stop offset="1" stop-color="#E631FA"/>
</linearGradient>
<linearGradient id="paint10_linear_2_79" x1="652" y1="-14.5" x2="196" y2="381" gradientUnits="userSpaceOnUse">
<stop offset="0.514423" stop-color="#48FAE8"/>
<stop offset="1" stop-color="#E631FA"/>
</linearGradient>
<linearGradient id="paint11_linear_2_79" x1="652" y1="-14.5" x2="196" y2="381" gradientUnits="userSpaceOnUse">
<stop offset="0.514423" stop-color="#48FAE8"/>
<stop offset="1" stop-color="#E631FA"/>
</linearGradient>
<linearGradient id="paint12_linear_2_79" x1="652" y1="-14.5" x2="196" y2="381" gradientUnits="userSpaceOnUse">
<stop offset="0.514423" stop-color="#48FAE8"/>
<stop offset="1" stop-color="#E631FA"/>
</linearGradient>
<linearGradient id="paint13_linear_2_79" x1="652" y1="-14.5" x2="196" y2="381" gradientUnits="userSpaceOnUse">
<stop offset="0.514423" stop-color="#48FAE8"/>
<stop offset="1" stop-color="#E631FA"/>
</linearGradient>
<linearGradient id="paint14_linear_2_79" x1="652" y1="-14.5" x2="196" y2="381" gradientUnits="userSpaceOnUse">
<stop offset="0.514423" stop-color="#48FAE8"/>
<stop offset="1" stop-color="#E631FA"/>
</linearGradient>
<linearGradient id="paint15_linear_2_79" x1="652" y1="-14.5" x2="196" y2="381" gradientUnits="userSpaceOnUse">
<stop offset="0.514423" stop-color="#48FAE8"/>
<stop offset="1" stop-color="#E631FA"/>
</linearGradient>
<linearGradient id="paint16_linear_2_79" x1="652" y1="-14.5" x2="196" y2="381" gradientUnits="userSpaceOnUse">
<stop offset="0.514423" stop-color="#48FAE8"/>
<stop offset="1" stop-color="#E631FA"/>
</linearGradient>
<linearGradient id="paint17_linear_2_79" x1="652" y1="-14.5" x2="196" y2="381" gradientUnits="userSpaceOnUse">
<stop offset="0.514423" stop-color="#48FAE8"/>
<stop offset="1" stop-color="#E631FA"/>
</linearGradient>
<linearGradient id="paint18_linear_2_79" x1="652" y1="-14.5" x2="196" y2="381" gradientUnits="userSpaceOnUse">
<stop offset="0.514423" stop-color="#48FAE8"/>
<stop offset="1" stop-color="#E631FA"/>
</linearGradient>
</defs>
</svg>
