<svg width="24" height="24" viewBox="0 0 24 24" fill="none" xmlns="http://www.w3.org/2000/svg">
<path d="M3.85742 8.34961H11.5713C13.4963 8.34961 15.0781 9.97205 15.0781 12V23.6504H0.349609V12C0.349609 9.97205 1.93237 8.34961 3.85742 8.34961ZM18.4482 0.353516C18.7283 0.354609 18.9541 0.58229 18.9531 0.862305L18.9424 3.85645C18.9401 4.52468 19.4811 5.06738 20.1494 5.06738H23.1426C23.4227 5.06738 23.6504 5.29511 23.6504 5.5752C23.6502 5.85509 23.4225 6.08203 23.1426 6.08203H20.1367C19.4719 6.08203 18.9314 6.61943 18.9287 7.28418L18.918 10.291C18.9169 10.571 18.6891 10.7968 18.4092 10.7959C18.1291 10.7948 17.9023 10.5672 17.9033 10.2871L17.915 7.29395C17.9175 6.6256 17.3763 6.08218 16.708 6.08203H13.7139C13.4341 6.08181 13.2073 5.85495 13.207 5.5752C13.207 5.29525 13.434 5.06761 13.7139 5.06738H16.7207C17.3856 5.06738 17.9251 4.53005 17.9277 3.86523L17.9395 0.858398C17.9406 0.578384 18.1682 0.352443 18.4482 0.353516ZM7.71387 0.349609C9.63892 0.349609 11.2217 1.97205 11.2217 4C11.2217 6.02795 9.63892 7.65039 7.71387 7.65039C5.789 7.65016 4.20703 6.0278 4.20703 4C4.20703 1.9722 5.789 0.349845 7.71387 0.349609Z" fill="black" stroke="white" stroke-width="0.7"/>
</svg>
