<svg width="24" height="24" viewBox="0 0 24 24" fill="none" xmlns="http://www.w3.org/2000/svg">
<path d="M3.85742 8.15039H11.5713C13.6136 8.15039 15.2783 9.86852 15.2783 12V23.8496H0.150391V12C0.150391 9.86852 1.81512 8.15039 3.85742 8.15039ZM18.4492 0.15332C18.7909 0.154728 19.075 0.398246 19.1396 0.720703L19.1533 0.863281L19.1426 3.85645C19.1405 4.41414 19.5917 4.86719 20.1494 4.86719H23.1426C23.5331 4.86719 23.8496 5.18465 23.8496 5.5752C23.8494 5.96555 23.533 6.28223 23.1426 6.28223H20.1367C19.582 6.28223 19.1311 6.73047 19.1289 7.28516L19.1182 10.292C19.1166 10.6824 18.7986 10.9976 18.4082 10.9961C18.0177 10.9946 17.7026 10.6766 17.7041 10.2861L17.7148 7.29297C17.7169 6.73537 17.2656 6.28238 16.708 6.28223H13.7139C13.3237 6.282 13.0071 5.96541 13.0068 5.5752C13.0068 5.18479 13.3235 4.86741 13.7139 4.86719H16.7207C17.2755 4.86719 17.7255 4.41901 17.7275 3.86426L17.7393 0.857422C17.7409 0.467029 18.0588 0.151795 18.4492 0.15332ZM7.71387 0.150391C9.75617 0.150391 11.4219 1.86852 11.4219 4C11.4219 6.13149 9.75617 7.84961 7.71387 7.84961C5.67175 7.84937 4.00684 6.13134 4.00684 4C4.00684 1.86866 5.67175 0.150625 7.71387 0.150391Z" fill="black" stroke="white" stroke-width="0.3"/>
</svg>
