<svg width="29" height="31" viewBox="0 0 29 31" fill="none" xmlns="http://www.w3.org/2000/svg">
<path d="M27.5369 23.2448C19.122 15.0385 24.4487 -0.133061 14.9081 0.567374C14.8397 0.572402 14.7602 0.570996 14.692 0.563346C4.43778 -0.586268 9.80666 14.1703 0.816054 23.5057C0.147946 24.1994 0.60382 25.5 1.56696 25.5H26.7778C27.8034 25.5 28.2711 23.9609 27.5369 23.2448Z" fill="#100F0F"/>
<path d="M14.0459 30C10.0459 30 10.5459 26 10.5459 26H17.5459C17.5459 26 18.0459 30 14.0459 30Z" fill="black"/>
<path d="M27.5369 23.2448C19.122 15.0385 24.4487 -0.133061 14.9081 0.567374C14.8397 0.572402 14.7602 0.570996 14.692 0.563346C4.43778 -0.586268 9.80666 14.1703 0.816054 23.5057C0.147946 24.1994 0.60382 25.5 1.56696 25.5H26.7778C27.8034 25.5 28.2711 23.9609 27.5369 23.2448Z" stroke="#FFF4F4" stroke-linejoin="round"/>
<path d="M14.0459 30C10.0459 30 10.5459 26 10.5459 26H17.5459C17.5459 26 18.0459 30 14.0459 30Z" stroke="#FFF4F4" stroke-linejoin="round"/>
</svg>
