<svg width="29" height="29" viewBox="0 0 29 29" fill="none" xmlns="http://www.w3.org/2000/svg">
<path d="M27.6412 1.49997C28.0319 1.89047 28.032 2.52376 27.6414 2.91435L17.1729 13.3828C16.7824 13.7733 16.7824 14.4065 17.1729 14.797L27.8956 25.5197C28.2861 25.9101 28.2861 26.5432 27.8958 26.9337L27.1886 27.6412C26.7981 28.0319 26.1648 28.032 25.7742 27.6414L15.0509 16.9181C14.6603 16.5276 14.0272 16.5276 13.6366 16.9181L2.9143 27.6414C2.52372 28.032 1.89041 28.0319 1.4999 27.6412L0.792718 26.9337C0.402347 26.5432 0.402421 25.9101 0.792882 25.5197L11.5156 14.797C11.9061 14.4065 11.9061 13.7733 11.5155 13.3828L1.04711 2.91435C0.656526 2.52376 0.656598 1.89047 1.04728 1.49997L1.75481 0.792764C2.14536 0.402393 2.7784 0.402467 3.16886 0.792927L13.6367 11.2607C14.0272 11.6513 14.6603 11.6513 15.0509 11.2608L25.5196 0.792869C25.9101 0.402436 26.5431 0.402376 26.9336 0.792736L27.6412 1.49997Z" fill="black"/>
<path d="M25.5196 0.792869L25.1661 0.439301L25.5196 0.792869ZM26.9336 0.792736L26.5802 1.14637L26.9336 0.792736ZM0.792718 26.9337L1.14635 26.5802L0.792718 26.9337ZM0.792882 25.5197L0.439328 25.1661L0.792882 25.5197ZM2.9143 27.6414L2.56073 27.2878L2.9143 27.6414ZM1.4999 27.6412L1.14626 27.9947L1.4999 27.6412ZM27.1886 27.6412L27.5422 27.9947L27.1886 27.6412ZM27.8958 26.9337L27.5421 26.5802L27.8958 26.9337ZM17.1729 13.3828L17.5265 13.7363L17.1729 13.3828ZM17.1729 14.797L16.8194 15.1505L17.1729 14.797ZM27.6414 2.91435L27.2878 2.56079L27.6414 2.91435ZM27.6412 1.49997L27.9947 1.14634L27.6412 1.49997ZM27.6414 2.91435L27.2878 2.56079L16.8194 13.0292L17.1729 13.3828L17.5265 13.7363L27.9949 3.2679L27.6414 2.91435ZM17.1729 14.797L16.8194 15.1505L27.542 25.8732L27.8956 25.5197L28.2492 25.1661L17.5265 14.4434L17.1729 14.797ZM27.8958 26.9337L27.5421 26.5802L26.8349 27.2878L27.1886 27.6412L27.5422 27.9947L28.2494 27.2872L27.8958 26.9337ZM25.7742 27.6414L26.1277 27.2879L15.4044 16.5646L15.0509 16.9181L14.6973 17.2717L25.4206 27.995L25.7742 27.6414ZM13.6366 16.9181L13.2831 16.5646L2.56073 27.2878L2.9143 27.6414L3.26787 27.9949L13.9902 17.2717L13.6366 16.9181ZM1.4999 27.6412L1.85353 27.2877L1.14635 26.5802L0.792718 26.9337L0.439083 27.2872L1.14626 27.9947L1.4999 27.6412ZM0.792882 25.5197L1.14643 25.8732L11.8691 15.1505L11.5156 14.797L11.162 14.4434L0.439328 25.1661L0.792882 25.5197ZM11.5155 13.3828L11.8691 13.0292L1.40067 2.56079L1.04711 2.91435L0.69356 3.2679L11.162 13.7363L11.5155 13.3828ZM1.04728 1.49997L1.40075 1.85361L2.10828 1.1464L1.75481 0.792764L1.40134 0.439129L0.693804 1.14634L1.04728 1.49997ZM3.16886 0.792927L2.8153 1.14648L13.2831 11.6143L13.6367 11.2607L13.9902 10.9072L3.52241 0.439374L3.16886 0.792927ZM15.0509 11.2608L15.4044 11.6143L25.8732 1.14644L25.5196 0.792869L25.1661 0.439301L14.6973 10.9072L15.0509 11.2608ZM26.9336 0.792736L26.5802 1.14637L27.2877 1.85361L27.6412 1.49997L27.9947 1.14634L27.2871 0.439101L26.9336 0.792736ZM25.5196 0.792869L25.8732 1.14644C26.0684 0.951221 26.3849 0.951191 26.5802 1.14637L26.9336 0.792736L27.2871 0.439101C26.7013 -0.146439 25.7518 -0.146348 25.1661 0.439301L25.5196 0.792869ZM13.6367 11.2607L13.2831 11.6143C13.8689 12.2001 14.8186 12.2001 15.4044 11.6143L15.0509 11.2608L14.6973 10.9072C14.5021 11.1025 14.1855 11.1024 13.9902 10.9072L13.6367 11.2607ZM1.75481 0.792764L2.10828 1.1464C2.30355 0.951214 2.62007 0.95125 2.8153 1.14648L3.16886 0.792927L3.52241 0.439374C2.93672 -0.146317 1.98716 -0.146428 1.40134 0.439129L1.75481 0.792764ZM1.04711 2.91435L1.40067 2.56079C1.20537 2.3655 1.20541 2.04885 1.40075 1.85361L1.04728 1.49997L0.693804 1.14634C0.107787 1.73208 0.107679 2.68202 0.69356 3.2679L1.04711 2.91435ZM11.5156 14.797L11.8691 15.1505C12.4549 14.5648 12.4549 13.615 11.8691 13.0292L11.5155 13.3828L11.162 13.7363C11.3573 13.9316 11.3573 14.2482 11.162 14.4434L11.5156 14.797ZM0.792718 26.9337L1.14635 26.5802C0.951168 26.385 0.951204 26.0684 1.14643 25.8732L0.792882 25.5197L0.439328 25.1661C-0.146362 25.7518 -0.146474 26.7014 0.439083 27.2872L0.792718 26.9337ZM2.9143 27.6414L2.56073 27.2878C2.36544 27.4831 2.04879 27.4831 1.85353 27.2877L1.4999 27.6412L1.14626 27.9947C1.73202 28.5807 2.68199 28.5808 3.26787 27.9949L2.9143 27.6414ZM15.0509 16.9181L15.4044 16.5646C14.8186 15.9788 13.8689 15.9788 13.2831 16.5646L13.6366 16.9181L13.9902 17.2717C14.1855 17.0764 14.5021 17.0764 14.6973 17.2717L15.0509 16.9181ZM27.1886 27.6412L26.8349 27.2878C26.6397 27.4831 26.323 27.4832 26.1277 27.2879L25.7742 27.6414L25.4206 27.995C26.0065 28.5808 26.9564 28.5807 27.5422 27.9947L27.1886 27.6412ZM27.8956 25.5197L27.542 25.8732C27.7373 26.0684 27.7373 26.385 27.5421 26.5802L27.8958 26.9337L28.2494 27.2872C28.8349 26.7014 28.8348 25.7518 28.2492 25.1661L27.8956 25.5197ZM17.1729 13.3828L16.8194 13.0292C16.2336 13.615 16.2336 14.5648 16.8194 15.1505L17.1729 14.797L17.5265 14.4434C17.3312 14.2482 17.3312 13.9316 17.5265 13.7363L17.1729 13.3828ZM27.6414 2.91435L27.9949 3.2679C28.5808 2.68202 28.5807 1.73208 27.9947 1.14634L27.6412 1.49997L27.2877 1.85361C27.4831 2.04885 27.4831 2.3655 27.2878 2.56079L27.6414 2.91435Z" fill="white"/>
</svg>
