<svg width="18" height="6" viewBox="0 0 18 6" fill="none" xmlns="http://www.w3.org/2000/svg">
<path d="M4.88636 2.75C4.88636 4.13071 3.84848 5.25 2.56818 5.25C1.28789 5.25 0.25 4.13071 0.25 2.75C0.25 1.36929 1.28789 0.25 2.56818 0.25C3.84848 0.25 4.88636 1.36929 4.88636 2.75Z" fill="#010101"/>
<path d="M11.0682 2.75C11.0682 4.13071 10.0303 5.25 8.75 5.25C7.4697 5.25 6.43182 4.13071 6.43182 2.75C6.43182 1.36929 7.4697 0.25 8.75 0.25C10.0303 0.25 11.0682 1.36929 11.0682 2.75Z" fill="#010101"/>
<path d="M17.25 2.75C17.25 4.13071 16.2121 5.25 14.9318 5.25C13.6515 5.25 12.6136 4.13071 12.6136 2.75C12.6136 1.36929 13.6515 0.25 14.9318 0.25C16.2121 0.25 17.25 1.36929 17.25 2.75Z" fill="#010101"/>
<path d="M4.88636 2.75C4.88636 4.13071 3.84848 5.25 2.56818 5.25C1.28789 5.25 0.25 4.13071 0.25 2.75C0.25 1.36929 1.28789 0.25 2.56818 0.25C3.84848 0.25 4.88636 1.36929 4.88636 2.75Z" stroke="white" stroke-width="0.5"/>
<path d="M11.0682 2.75C11.0682 4.13071 10.0303 5.25 8.75 5.25C7.4697 5.25 6.43182 4.13071 6.43182 2.75C6.43182 1.36929 7.4697 0.25 8.75 0.25C10.0303 0.25 11.0682 1.36929 11.0682 2.75Z" stroke="white" stroke-width="0.5"/>
<path d="M17.25 2.75C17.25 4.13071 16.2121 5.25 14.9318 5.25C13.6515 5.25 12.6136 4.13071 12.6136 2.75C12.6136 1.36929 13.6515 0.25 14.9318 0.25C16.2121 0.25 17.25 1.36929 17.25 2.75Z" stroke="white" stroke-width="0.5"/>
</svg>
