<svg width="36" height="36" viewBox="0 0 36 36" fill="none" xmlns="http://www.w3.org/2000/svg">
<mask id="path-1-outside-1_32_70" maskUnits="userSpaceOnUse" x="0" y="0" width="36" height="36" fill="black">
<rect fill="white" width="36" height="36"/>
<path d="M21 4.82751C21 5.74008 21.6254 6.52066 22.472 6.86135C22.6001 6.9129 22.7271 6.96661 22.853 7.02241C23.6973 7.39672 24.7062 7.29294 25.3593 6.63997L26.5858 5.41385C27.3669 4.63297 28.6331 4.63305 29.414 5.41403L30.8278 6.82779C31.6089 7.60891 31.6088 8.87538 30.8276 9.6564L29.505 10.9786C28.8672 11.6163 28.752 12.5958 29.0971 13.429C29.1108 13.4621 29.1243 13.4952 29.1377 13.5283C29.4792 14.3746 30.2599 15 31.1725 15H33C34.1046 15 35 15.8954 35 17V19C35 20.1046 34.1046 21 33 21H31.1725C30.2599 21 29.4793 21.6254 29.1383 22.4719C29.0867 22.6 29.033 22.727 28.9771 22.8529C28.6024 23.6972 28.7062 24.7062 29.3594 25.3594L30.5858 26.5858C31.3668 27.3668 31.3668 28.6332 30.5858 29.4142L29.172 30.828C28.391 31.609 27.1246 31.609 26.3436 30.828L25.0203 29.5047C24.3827 28.8671 23.4033 28.7519 22.5701 29.0967C22.5374 29.1102 22.5046 29.1236 22.4717 29.1369C21.6254 29.4783 21 30.2589 21 31.1715V33C21 34.1046 20.1046 35 19 35H17C15.8954 35 15 34.1046 15 33V31.1715C15 30.2589 14.3746 29.4783 13.5283 29.1369C13.4955 29.1237 13.4627 29.1103 13.43 29.0967C12.5968 28.752 11.6173 28.8672 10.9797 29.5049L9.61522 30.8698C8.83427 31.6509 7.56792 31.6511 6.78678 30.8701L5.37237 29.456C4.59123 28.6751 4.59108 27.4088 5.37202 26.6276L6.63997 25.3593C7.29294 24.7062 7.39672 23.6973 7.02241 22.853C6.96661 22.7271 6.9129 22.6001 6.86135 22.472C6.52066 21.6254 5.74008 21 4.82751 21H3C1.89543 21 1 20.1046 1 19V17C1 15.8954 1.89543 15 3 15H4.82751C5.74008 15 6.52076 14.3746 6.86215 13.5283C6.87542 13.4954 6.88884 13.4626 6.90239 13.4298C7.24715 12.5967 7.13198 11.6173 6.4944 10.9798L5.12987 9.61522C4.34889 8.83424 4.34881 7.56803 5.12971 6.78696L6.54379 5.37255C7.32482 4.59135 8.59127 4.59127 9.37238 5.37238L10.6396 6.6396C11.2928 7.29276 12.3019 7.3966 13.1464 7.02237C13.2725 6.96651 13.3997 6.91276 13.528 6.86116C14.3746 6.52065 15 5.74008 15 4.82751V3C15 1.89543 15.8954 1 17 1H19C20.1046 1 21 1.89543 21 3V4.82751Z"/>
</mask>
<path d="M21 4.82751C21 5.74008 21.6254 6.52066 22.472 6.86135C22.6001 6.9129 22.7271 6.96661 22.853 7.02241C23.6973 7.39672 24.7062 7.29294 25.3593 6.63997L26.5858 5.41385C27.3669 4.63297 28.6331 4.63305 29.414 5.41403L30.8278 6.82779C31.6089 7.60891 31.6088 8.87538 30.8276 9.6564L29.505 10.9786C28.8672 11.6163 28.752 12.5958 29.0971 13.429C29.1108 13.4621 29.1243 13.4952 29.1377 13.5283C29.4792 14.3746 30.2599 15 31.1725 15H33C34.1046 15 35 15.8954 35 17V19C35 20.1046 34.1046 21 33 21H31.1725C30.2599 21 29.4793 21.6254 29.1383 22.4719C29.0867 22.6 29.033 22.727 28.9771 22.8529C28.6024 23.6972 28.7062 24.7062 29.3594 25.3594L30.5858 26.5858C31.3668 27.3668 31.3668 28.6332 30.5858 29.4142L29.172 30.828C28.391 31.609 27.1246 31.609 26.3436 30.828L25.0203 29.5047C24.3827 28.8671 23.4033 28.7519 22.5701 29.0967C22.5374 29.1102 22.5046 29.1236 22.4717 29.1369C21.6254 29.4783 21 30.2589 21 31.1715V33C21 34.1046 20.1046 35 19 35H17C15.8954 35 15 34.1046 15 33V31.1715C15 30.2589 14.3746 29.4783 13.5283 29.1369C13.4955 29.1237 13.4627 29.1103 13.43 29.0967C12.5968 28.752 11.6173 28.8672 10.9797 29.5049L9.61522 30.8698C8.83427 31.6509 7.56792 31.6511 6.78678 30.8701L5.37237 29.456C4.59123 28.6751 4.59108 27.4088 5.37202 26.6276L6.63997 25.3593C7.29294 24.7062 7.39672 23.6973 7.02241 22.853C6.96661 22.7271 6.9129 22.6001 6.86135 22.472C6.52066 21.6254 5.74008 21 4.82751 21H3C1.89543 21 1 20.1046 1 19V17C1 15.8954 1.89543 15 3 15H4.82751C5.74008 15 6.52076 14.3746 6.86215 13.5283C6.87542 13.4954 6.88884 13.4626 6.90239 13.4298C7.24715 12.5967 7.13198 11.6173 6.4944 10.9798L5.12987 9.61522C4.34889 8.83424 4.34881 7.56803 5.12971 6.78696L6.54379 5.37255C7.32482 4.59135 8.59127 4.59127 9.37238 5.37238L10.6396 6.6396C11.2928 7.29276 12.3019 7.3966 13.1464 7.02237C13.2725 6.96651 13.3997 6.91276 13.528 6.86116C14.3746 6.52065 15 5.74008 15 4.82751V3C15 1.89543 15.8954 1 17 1H19C20.1046 1 21 1.89543 21 3V4.82751Z" fill="black"/>
<path d="M13.528 6.86116L13.1548 5.93338L13.528 6.86116ZM13.1464 7.02237L12.7413 6.10811L13.1464 7.02237ZM6.4944 10.9798L5.78729 11.6869L6.4944 10.9798ZM6.86215 13.5283L5.93476 13.1542L6.86215 13.5283ZM6.63997 25.3593L7.34717 26.0664L6.63997 25.3593ZM7.02241 22.853L6.10822 23.2583L7.02241 22.853ZM5.37202 26.6276L4.66482 25.9206L5.37202 26.6276ZM9.61522 30.8698L8.90803 30.1628L9.61522 30.8698ZM13.43 29.0967L13.0477 30.0208L13.43 29.0967ZM10.9797 29.5049L10.2725 28.7979L10.9797 29.5049ZM13.5283 29.1369L13.1542 30.0643L13.5283 29.1369ZM22.5701 29.0967L22.9525 30.0207L22.5701 29.0967ZM29.1383 22.4719L28.2108 22.0982L29.1383 22.4719ZM29.1377 13.5283L30.065 13.1541L29.1377 13.5283ZM29.0971 13.429L28.1732 13.8116L29.0971 13.429ZM30.8278 6.82779L30.1207 7.5349L30.8278 6.82779ZM26.5858 5.41385L27.2928 6.12104L26.5858 5.41385ZM29.414 5.41403L28.7069 6.12114L29.414 5.41403ZM22.472 6.86135L22.0986 7.78905L22.472 6.86135ZM22.472 6.86135L22.0986 7.78905C22.216 7.83627 22.3324 7.88547 22.4477 7.9366L22.853 7.02241L23.2583 6.10822C23.1218 6.04774 22.9842 5.98954 22.8453 5.93365L22.472 6.86135ZM25.3593 6.63997L26.0664 7.34717L27.2928 6.12104L26.5858 5.41385L25.8788 4.70665L24.6523 5.93277L25.3593 6.63997ZM29.414 5.41403L28.7069 6.12114L30.1207 7.5349L30.8278 6.82779L31.5349 6.12069L30.1211 4.70692L29.414 5.41403ZM30.8276 9.6564L30.1206 8.9492L28.798 10.2714L29.505 10.9786L30.212 11.6858L31.5346 10.3636L30.8276 9.6564ZM29.0971 13.429L28.1732 13.8116C28.1857 13.8419 28.1981 13.8722 28.2104 13.9026L29.1377 13.5283L30.065 13.1541C30.0505 13.1181 30.0358 13.0822 30.021 13.0464L29.0971 13.429ZM31.1725 15V16H33V15V14H31.1725V15ZM35 17H34V19H35H36V17H35ZM33 21V20H31.1725V21V22H33V21ZM29.1383 22.4719L28.2108 22.0982C28.1635 22.2156 28.1142 22.3319 28.0631 22.4473L28.9771 22.8529L29.8911 23.2585C29.9517 23.1221 30.01 22.9844 30.0659 22.8455L29.1383 22.4719ZM29.3594 25.3594L28.6523 26.0665L29.8787 27.2929L30.5858 26.5858L31.2929 25.8787L30.0665 24.6523L29.3594 25.3594ZM30.5858 29.4142L29.8787 28.7071L28.4649 30.1209L29.172 30.828L29.8791 31.5351L31.2929 30.1213L30.5858 29.4142ZM26.3436 30.828L27.0507 30.1209L25.7274 28.7976L25.0203 29.5047L24.3132 30.2118L25.6365 31.5351L26.3436 30.828ZM22.5701 29.0967L22.1878 28.1726C22.1578 28.1851 22.1277 28.1973 22.0976 28.2095L22.4717 29.1369L22.8458 30.0643C22.8814 30.0499 22.917 30.0354 22.9525 30.0207L22.5701 29.0967ZM21 31.1715H20V33H21H22V31.1715H21ZM19 35V34H17V35V36H19V35ZM15 33H16V31.1715H15H14V33H15ZM13.5283 29.1369L13.9024 28.2095C13.8723 28.1974 13.8423 28.1851 13.8124 28.1727L13.43 29.0967L13.0477 30.0208C13.0831 30.0354 13.1187 30.0499 13.1542 30.0643L13.5283 29.1369ZM10.9797 29.5049L10.2725 28.7979L8.90803 30.1628L9.61522 30.8698L10.3224 31.5768L11.6869 30.212L10.9797 29.5049ZM6.78678 30.8701L7.4938 30.1629L6.07939 28.7488L5.37237 29.456L4.66534 30.1632L6.07975 31.5773L6.78678 30.8701ZM5.37202 26.6276L6.07922 27.3346L7.34717 26.0664L6.63997 25.3593L5.93277 24.6523L4.66482 25.9206L5.37202 26.6276ZM7.02241 22.853L7.9366 22.4477C7.88547 22.3324 7.83627 22.216 7.78905 22.0986L6.86135 22.472L5.93365 22.8453C5.98954 22.9842 6.04774 23.1218 6.10822 23.2583L7.02241 22.853ZM4.82751 21V20H3V21V22H4.82751V21ZM1 19H2V17H1H0V19H1ZM3 15V16H4.82751V15V14H3V15ZM6.86215 13.5283L7.78954 13.9024C7.8017 13.8723 7.81399 13.8422 7.82641 13.8122L6.90239 13.4298L5.97838 13.0474C5.96369 13.0829 5.94915 13.1185 5.93476 13.1542L6.86215 13.5283ZM6.4944 10.9798L7.20151 10.2726L5.83698 8.90811L5.12987 9.61522L4.42276 10.3223L5.78729 11.6869L6.4944 10.9798ZM5.12971 6.78696L5.8369 7.49398L7.25098 6.07957L6.54379 5.37255L5.83661 4.66552L4.42252 6.07993L5.12971 6.78696ZM9.37238 5.37238L8.66528 6.07949L9.93249 7.34671L10.6396 6.6396L11.3467 5.93249L10.0795 4.66528L9.37238 5.37238ZM13.1464 7.02237L13.5515 7.93663C13.667 7.88545 13.7836 7.83621 13.9011 7.78894L13.528 6.86116L13.1548 5.93338C13.0158 5.98931 12.8779 6.04757 12.7413 6.10811L13.1464 7.02237ZM15 4.82751H16V3H15H14V4.82751H15ZM17 1V2H19V1V0H17V1ZM21 3H20V4.82751H21H22V3H21ZM19 1V2C19.5523 2 20 2.44772 20 3H21H22C22 1.34315 20.6569 0 19 0V1ZM15 3H16C16 2.44772 16.4477 2 17 2V1V0C15.3431 0 14 1.34315 14 3H15ZM13.528 6.86116L13.9011 7.78894C15.0551 7.32484 16 6.22019 16 4.82751H15H14C14 5.25997 13.6942 5.71647 13.1548 5.93338L13.528 6.86116ZM10.6396 6.6396L9.93249 7.34671C10.9294 8.34363 12.4003 8.44677 13.5515 7.93663L13.1464 7.02237L12.7413 6.10811C12.2035 6.34643 11.6561 6.2419 11.3467 5.93249L10.6396 6.6396ZM6.54379 5.37255L7.25098 6.07957C7.64149 5.68897 8.27472 5.68894 8.66528 6.07949L9.37238 5.37238L10.0795 4.66528C8.90782 3.49361 7.00814 3.49372 5.83661 4.66552L6.54379 5.37255ZM5.12987 9.61522L5.83698 8.90811C5.44649 8.51762 5.44645 7.88452 5.8369 7.49398L5.12971 6.78696L4.42252 6.07993C3.25118 7.25154 3.25129 9.15085 4.42276 10.3223L5.12987 9.61522ZM6.90239 13.4298L7.82641 13.8122C8.29717 12.6745 8.17442 11.2456 7.20151 10.2726L6.4944 10.9798L5.78729 11.6869C6.08953 11.9891 6.19714 12.5188 5.97838 13.0474L6.90239 13.4298ZM4.82751 15V16C6.22016 16 7.32454 15.0551 7.78954 13.9024L6.86215 13.5283L5.93476 13.1542C5.71699 13.6941 5.25999 14 4.82751 14V15ZM1 17H2C2 16.4477 2.44772 16 3 16V15V14C1.34315 14 0 15.3431 0 17H1ZM3 21V20C2.44772 20 2 19.5523 2 19H1H0C0 20.6569 1.34315 22 3 22V21ZM6.86135 22.472L7.78905 22.0986C7.32477 20.9449 6.22019 20 4.82751 20V21V22C5.25996 22 5.71656 22.3058 5.93365 22.8453L6.86135 22.472ZM6.63997 25.3593L7.34717 26.0664C8.3438 25.0695 8.44692 23.5988 7.9366 22.4477L7.02241 22.853L6.10822 23.2583C6.34651 23.7958 6.24209 24.3429 5.93277 24.6523L6.63997 25.3593ZM5.37237 29.456L6.07939 28.7488C5.68883 28.3584 5.68875 27.7252 6.07922 27.3346L5.37202 26.6276L4.66482 25.9206C3.49341 27.0923 3.49364 28.9918 4.66534 30.1632L5.37237 29.456ZM9.61522 30.8698L8.90803 30.1628C8.51755 30.5533 7.88438 30.5534 7.4938 30.1629L6.78678 30.8701L6.07975 31.5773C7.25147 32.7487 9.15098 32.7485 10.3224 31.5768L9.61522 30.8698ZM13.43 29.0967L13.8124 28.1727C12.6746 27.702 11.2454 27.8248 10.2725 28.7979L10.9797 29.5049L11.6869 30.212C11.9891 29.9096 12.5189 29.802 13.0477 30.0208L13.43 29.0967ZM15 31.1715H16C16 29.7788 15.0552 28.6745 13.9024 28.2095L13.5283 29.1369L13.1542 30.0643C13.6941 30.282 14 30.739 14 31.1715H15ZM17 35V34C16.4477 34 16 33.5523 16 33H15H14C14 34.6569 15.3431 36 17 36V35ZM21 33H20C20 33.5523 19.5523 34 19 34V35V36C20.6569 36 22 34.6569 22 33H21ZM22.4717 29.1369L22.0976 28.2095C20.9448 28.6745 20 29.7788 20 31.1715H21H22C22 30.739 22.3059 30.282 22.8458 30.0643L22.4717 29.1369ZM25.0203 29.5047L25.7274 28.7976C24.7545 27.8246 23.3255 27.7019 22.1878 28.1726L22.5701 29.0967L22.9525 30.0207C23.4812 29.8019 24.0109 29.9095 24.3132 30.2118L25.0203 29.5047ZM29.172 30.828L28.4649 30.1209C28.0744 30.5114 27.4412 30.5114 27.0507 30.1209L26.3436 30.828L25.6365 31.5351C26.8081 32.7067 28.7076 32.7067 29.8791 31.5351L29.172 30.828ZM30.5858 26.5858L29.8787 27.2929C30.2692 27.6834 30.2692 28.3166 29.8787 28.7071L30.5858 29.4142L31.2929 30.1213C32.4645 28.9497 32.4645 27.0503 31.2929 25.8787L30.5858 26.5858ZM28.9771 22.8529L28.0631 22.4473C27.5521 23.5986 27.6554 25.0696 28.6523 26.0665L29.3594 25.3594L30.0665 24.6523C29.7571 24.3429 29.6527 23.7958 29.8911 23.2585L28.9771 22.8529ZM31.1725 21V20C29.7798 20 28.6753 20.9449 28.2108 22.0982L29.1383 22.4719L30.0659 22.8455C30.2833 22.3059 30.74 22 31.1725 22V21ZM35 19H34C34 19.5523 33.5523 20 33 20V21V22C34.6569 22 36 20.6569 36 19H35ZM33 15V16C33.5523 16 34 16.4477 34 17H35H36C36 15.3431 34.6569 14 33 14V15ZM29.1377 13.5283L28.2104 13.9026C28.6755 15.0552 29.7798 16 31.1725 16V15V14C30.74 14 30.2829 13.694 30.065 13.1541L29.1377 13.5283ZM29.505 10.9786L28.798 10.2714C27.8248 11.2444 27.702 12.6738 28.1732 13.8116L29.0971 13.429L30.021 13.0464C29.8021 12.5178 29.9097 11.9881 30.212 11.6858L29.505 10.9786ZM30.8278 6.82779L30.1207 7.5349C30.5112 7.92546 30.5112 8.55869 30.1206 8.9492L30.8276 9.6564L31.5346 10.3636C32.7065 9.19207 32.7066 7.29237 31.5349 6.12069L30.8278 6.82779ZM26.5858 5.41385L27.2928 6.12104C27.6833 5.73061 28.3164 5.73065 28.7069 6.12114L29.414 5.41403L30.1211 4.70692C28.9497 3.53546 27.0504 3.53533 25.8788 4.70665L26.5858 5.41385ZM22.853 7.02241L22.4477 7.9366C23.5988 8.44692 25.0695 8.3438 26.0664 7.34717L25.3593 6.63997L24.6523 5.93277C24.3429 6.24209 23.7958 6.34652 23.2583 6.10822L22.853 7.02241ZM22.472 6.86135L22.8453 5.93365C22.3058 5.71656 22 5.25996 22 4.82751H21H20C20 6.22019 20.9449 7.32477 22.0986 7.78905L22.472 6.86135Z" fill="white" mask="url(#path-1-outside-1_32_70)"/>
<circle cx="18" cy="18" r="6.5" stroke="#FFFBFB"/>
</svg>
