<svg width="22" height="23" viewBox="0 0 22 23" fill="none" xmlns="http://www.w3.org/2000/svg">
<path d="M14.6361 1.56624C10.2349 3.78234 4.05063 10.8076 3.93642 11C3.82221 11.1924 1.50378 13.9174 0.811398 16.5156C0.189905 18.8478 0.573319 19.2414 1.30318 20.166C1.47973 20.3897 1.67869 20.5978 1.91617 20.7553C2.74903 21.3076 3.59098 21.6111 4.20433 21.7749C4.79958 21.9339 5.41983 21.7958 5.93575 21.4591C6.53783 21.0661 7.35854 20.4866 7.96406 19.8913C8.33453 19.5271 8.53913 19.0165 8.44958 18.5047C8.31843 17.7552 7.94101 17.0601 7.68203 16.2315C7.44187 15.4632 7.73472 14.6585 8.26427 14.0522L12.7535 8.91258C13.5849 7.96075 14.9204 7.64346 16.1298 8.01025C17.423 8.40246 18.9129 8.73579 19.1606 8.28506C19.5431 7.58882 20.2084 6.76782 21.0002 5.63749C21.2908 5.22254 21.5203 4.71504 21.3462 4.23928C21.0838 3.52251 20.3085 2.96072 19.1606 1.56624C17.7036 0.170187 16.7243 0.119217 14.6361 1.56624Z" fill="black" stroke="white" stroke-linejoin="round"/>
</svg>
