<svg width="32" height="26" viewBox="0 0 32 26" fill="none" xmlns="http://www.w3.org/2000/svg">
<path d="M19.5371 13.1992C20.359 11.7756 22.3083 11.5193 23.4707 12.6816L31.5 20.7109V22.0117C31.4999 23.3923 30.3806 24.5117 29 24.5117H1.20703L4.24316 21.4756C5.04324 20.6756 6.28086 20.5125 7.26074 21.0781L10.0254 22.6748C11.6994 23.6412 13.8401 23.0675 14.8066 21.3936L19.5371 13.1992ZM3 0.5H29C30.3807 0.5 31.5 1.61929 31.5 3V19.2969L24.1777 11.9746C22.5505 10.3473 19.8226 10.7063 18.6719 12.6992L13.9404 20.8936C13.25 22.0891 11.7211 22.4989 10.5254 21.8086L7.76074 20.2119C6.3889 19.42 4.65622 19.6485 3.53613 20.7686L0.5 23.8047V3C0.5 1.61929 1.61929 0.5 3 0.5ZM29.293 6.62109C29.2928 7.5636 28.5285 8.32715 27.5859 8.32715C26.6435 8.327 25.8791 7.56351 25.8789 6.62109C25.8789 5.67849 26.6434 4.91421 27.5859 4.91406C28.5286 4.91406 29.293 5.6784 29.293 6.62109ZM30.293 6.62109C30.293 5.12612 29.0809 3.91406 27.5859 3.91406C26.0911 3.91421 24.8789 5.12621 24.8789 6.62109C24.8791 8.1158 26.0912 9.327 27.5859 9.32715C29.0808 9.32715 30.2928 8.11589 30.293 6.62109Z" fill="black" stroke="white"/>
</svg>
