<svg width="17" height="17" viewBox="0 0 17 17" fill="none" xmlns="http://www.w3.org/2000/svg">
<path d="M16.25 8.25C16.25 12.6683 12.6683 16.25 8.25 16.25C3.83172 16.25 0.25 12.6683 0.25 8.25C0.25 3.83172 3.83172 0.25 8.25 0.25C12.6683 0.25 16.25 3.83172 16.25 8.25Z" fill="black"/>
<path d="M16 8.25C16 3.96979 12.5302 0.5 8.25 0.5C3.96979 0.5 0.5 3.96979 0.5 8.25C0.5 12.5302 3.96979 16 8.25 16C12.5302 16 16 12.5302 16 8.25ZM16.5 8.25C16.5 12.8063 12.8063 16.5 8.25 16.5C3.69365 16.5 0 12.8063 0 8.25C0 3.69365 3.69365 0 8.25 0C12.8063 0 16.5 3.69365 16.5 8.25Z" fill="white"/>
<path d="M8.2381 13.25C7.85018 13.25 7.53571 12.9355 7.53571 12.5476V6.67965C7.53571 6.29174 7.85018 5.97727 8.2381 5.97727C8.62601 5.97727 8.94048 6.29174 8.94048 6.67965V12.5476C8.94048 12.9355 8.62601 13.25 8.2381 13.25ZM8.25 4.76515C7.97619 4.76515 7.74008 4.69097 7.54167 4.54261C7.34722 4.39426 7.25 4.21591 7.25 4.00758C7.25 3.79924 7.34722 3.6209 7.54167 3.47254C7.74008 3.32418 7.97619 3.25 8.25 3.25C8.52381 3.25 8.75794 3.32418 8.95238 3.47254C9.15079 3.6209 9.25 3.79924 9.25 4.00758C9.25 4.21591 9.15079 4.39426 8.95238 4.54261C8.75794 4.69097 8.52381 4.76515 8.25 4.76515Z" fill="white"/>
</svg>
