<svg width="23" height="21" viewBox="0 0 23 21" fill="none" xmlns="http://www.w3.org/2000/svg">
<path d="M20.25 0.25H2.25C1.14543 0.25 0.25 1.14543 0.25 2.25V15.6389C0.25 16.4673 0.921573 17.1389 1.75 17.1389V20.25L9.75 17.1389H20.25C21.3546 17.1389 22.25 16.2435 22.25 15.1389V2.25C22.25 1.14543 21.3546 0.25 20.25 0.25Z" fill="black"/>
<path d="M2.75 3.80556H19.75M2.75 8.25H19.75M2.75 12.25H7.25M11.25 12.25H9.25M2.25 0.25H20.25C21.3546 0.25 22.25 1.14543 22.25 2.25V15.1389C22.25 16.2435 21.3546 17.1389 20.25 17.1389H9.75L1.75 20.25V17.1389C0.921573 17.1389 0.25 16.4673 0.25 15.6389V2.25C0.25 1.14543 1.14543 0.25 2.25 0.25Z" stroke="white" stroke-width="0.5"/>
</svg>
