<svg width="14" height="19" viewBox="0 0 14 19" fill="none" xmlns="http://www.w3.org/2000/svg">
<path d="M6.49988 15.5C6.77602 15.5 6.99988 15.7239 6.99988 16V18C6.99988 18.2761 6.77602 18.5 6.49988 18.5C6.22374 18.5 5.99988 18.2761 5.99988 18V16C5.99988 15.7239 6.22374 15.5 6.49988 15.5Z" fill="black"/>
<path d="M0.499878 9.5C0.77602 9.5 0.9975 9.7246 1.02227 9.99963C1.27471 12.8031 3.63073 15 6.49988 15C9.36903 15 11.7251 12.8031 11.9775 9.99963C12.0023 9.7246 12.2237 9.5 12.4999 9.5C12.776 9.5 13.0019 9.72464 12.9809 9.99999C12.7256 13.3562 9.9215 16 6.49988 16C3.07826 16 0.274131 13.3562 0.0188221 9.99999C-0.00212353 9.72464 0.223736 9.5 0.499878 9.5Z" fill="black"/>
<path d="M3.49988 3.5C3.49988 1.84315 4.84302 0.5 6.49988 0.5C8.15673 0.5 9.49988 1.84315 9.49988 3.5V9.5C9.49988 11.1569 8.15673 12.5 6.49988 12.5C4.84302 12.5 3.49988 11.1569 3.49988 9.5V3.5Z" fill="black"/>
<path d="M8.99988 3.5C8.99988 2.11929 7.88059 1 6.49988 1C5.11917 1 3.99988 2.11929 3.99988 3.5V9.5C3.99988 10.8807 5.11917 12 6.49988 12C7.88059 12 8.99988 10.8807 8.99988 9.5V3.5ZM9.99988 9.5C9.99988 11.433 8.43287 13 6.49988 13C4.56688 13 2.99988 11.433 2.99988 9.5V3.5C2.99988 1.567 4.56688 0 6.49988 0C8.43287 0 9.99988 1.567 9.99988 3.5V9.5Z" fill="white"/>
<path d="M12.621 1.17383C12.8012 0.964766 13.1169 0.941043 13.326 1.12109C13.5351 1.30132 13.5588 1.61702 13.3788 1.82617L0.878769 16.3262C0.698543 16.5352 0.382846 16.559 0.173691 16.3789C-0.0353717 16.1987 -0.0590943 15.883 0.120957 15.6738L12.621 1.17383Z" fill="black"/>
</svg>
