<svg width="13" height="19" viewBox="0 0 13 19" fill="none" xmlns="http://www.w3.org/2000/svg">
<path d="M6.4824 15.5C6.75855 15.5 6.9824 15.7239 6.9824 16V18C6.9824 18.2761 6.75855 18.5 6.4824 18.5C6.20626 18.5 5.9824 18.2761 5.9824 18V16C5.9824 15.7239 6.20626 15.5 6.4824 15.5Z" fill="black"/>
<path d="M0.482404 9.5C0.758547 9.5 0.980027 9.7246 1.00479 9.99963C1.25723 12.8031 3.61326 15 6.4824 15C9.35155 15 11.7076 12.8031 11.96 9.99963C11.9848 9.7246 12.2063 9.5 12.4824 9.5C12.7585 9.5 12.9844 9.72464 12.9635 9.99999C12.7082 13.3562 9.90402 16 6.4824 16C3.06079 16 0.256657 13.3562 0.00134861 9.99999C-0.019597 9.72464 0.206262 9.5 0.482404 9.5Z" fill="black"/>
<path d="M3.4824 3.5C3.4824 1.84315 4.82555 0.5 6.4824 0.5C8.13926 0.5 9.4824 1.84315 9.4824 3.5V9.5C9.4824 11.1569 8.13926 12.5 6.4824 12.5C4.82555 12.5 3.4824 11.1569 3.4824 9.5V3.5Z" fill="black"/>
<path d="M8.9824 3.5C8.9824 2.11929 7.86312 1 6.4824 1C5.10169 1 3.9824 2.11929 3.9824 3.5V9.5C3.9824 10.8807 5.10169 12 6.4824 12C7.86312 12 8.9824 10.8807 8.9824 9.5V3.5ZM9.9824 9.5C9.9824 11.433 8.4154 13 6.4824 13C4.54941 13 2.9824 11.433 2.9824 9.5V3.5C2.9824 1.567 4.54941 0 6.4824 0C8.4154 0 9.9824 1.567 9.9824 3.5V9.5Z" fill="white"/>
</svg>
