<svg width="33" height="33" viewBox="0 0 33 33" fill="none" xmlns="http://www.w3.org/2000/svg">
<path d="M0 3C0 1.34314 1.34315 0 3 0H30C31.6569 0 33 1.34315 33 3V30C33 31.6569 31.6569 33 30 33H3C1.34314 33 0 31.6569 0 30V3Z" fill="black"/>
<path d="M30 0C31.6569 0 33 1.34315 33 3V30C33 31.6569 31.6569 33 30 33H3C1.34314 33 0 31.6569 0 30V3C0 1.34314 1.34315 0 3 0H30ZM2.2 27.8C2.2 29.4569 3.54315 30.8 5.2 30.8H27.8C29.4569 30.8 30.8 29.4569 30.8 27.8V5.2C30.8 3.54315 29.4569 2.2 27.8 2.2H5.2C3.54315 2.2 2.2 3.54315 2.2 5.2V27.8Z" fill="white"/>
<path d="M8.8 10.1625C8.8 9.41002 9.41002 8.8 10.1625 8.8C10.7122 8.8 11.208 9.13028 11.4198 9.63751L16.3725 21.4983C16.394 21.5497 16.4443 21.5832 16.5 21.5832C16.5557 21.5832 16.606 21.5497 16.6275 21.4983L21.5802 9.63751C21.792 9.13028 22.2878 8.8 22.8375 8.8C23.59 8.8 24.2 9.41002 24.2 10.1625V23.3104C24.2 23.8017 23.8017 24.2 23.3104 24.2C22.819 24.2 22.4207 23.8017 22.4207 23.3104V12.5917C22.4207 12.5409 22.3795 12.4996 22.3286 12.4996C22.2915 12.4996 22.258 12.5219 22.2436 12.5561L17.6913 23.4079C17.4899 23.8878 17.0204 24.2 16.5 24.2C15.9796 24.2 15.5101 23.8878 15.3088 23.4079L10.7564 12.5561C10.742 12.5219 10.7085 12.4996 10.6714 12.4996C10.6205 12.4996 10.5793 12.5409 10.5793 12.5917V23.3104C10.5793 23.8017 10.181 24.2 9.68964 24.2C9.19831 24.2 8.8 23.8017 8.8 23.3104V10.1625Z" fill="white"/>
</svg>
