<svg width="20" height="19" viewBox="0 0 20 19" fill="none" xmlns="http://www.w3.org/2000/svg">
<path d="M19.1304 9.74082C19.1304 4.82891 15.0426 0.847028 10 0.847028C4.9574 0.847028 0.869565 4.82891 0.869565 9.74082C0.869565 12.2894 1.96917 14.5873 3.73302 16.2093C3.90758 16.3699 3.91557 16.6373 3.75085 16.8074C3.58601 16.9775 3.31064 16.9853 3.13604 16.8248C1.2056 15.0493 0 12.5319 0 9.74082C0 4.36111 4.47715 0 10 0C15.5228 0 20 4.36111 20 9.74082C20 14.0376 17.1442 17.6833 13.1819 18.9779C12.9544 19.0522 12.7081 18.9331 12.6316 18.7115C12.5553 18.4898 12.6774 18.2491 12.9051 18.1747C16.5239 16.9925 19.1304 13.6628 19.1304 9.74082Z" fill="black"/>
<path d="M7.3913 10.3673C7.3913 11.4247 8.34297 12.2819 9.51691 12.2819C10.0079 12.2819 10.4599 12.132 10.8198 11.8802L16.9565 6.35271L8.32675 8.78077C7.7623 9.12497 7.3913 9.70712 7.3913 10.3673Z" fill="black"/>
<path d="M17.252 6.66373L11.115 12.1909L11.0954 12.2091L11.0734 12.224C10.6399 12.5273 10.0992 12.7054 9.51681 12.7054C8.13547 12.7054 6.95652 11.6889 6.95652 10.367C6.95665 9.5453 7.41911 8.83431 8.09613 8.42147L8.14793 8.39004L8.20567 8.3735L16.8359 5.94574L17.8261 5.92919L17.252 6.66373ZM7.3913 10.3673C7.3913 11.3586 8.22765 12.1739 9.29942 12.272L9.51691 12.2819C10.0079 12.2819 10.4599 12.132 10.8198 11.8802L16.9565 6.35271L8.32675 8.78077L8.22351 8.8483C7.7177 9.19822 7.39142 9.74849 7.3913 10.3673Z" fill="white"/>
</svg>
