<svg width="15" height="21" viewBox="0 0 15 21" fill="none" xmlns="http://www.w3.org/2000/svg">
<path d="M0.377852 7.89069L2.89604 12.75L3.83458 15.2382C3.96222 15.5766 4.02762 15.9353 4.02762 16.297V17.5729C4.02762 19.2973 5.47794 20.6667 7.19954 20.5679L10.6388 20.3705C11.8172 20.3029 12.7381 19.3275 12.7381 18.1472C12.7381 17.8845 12.7846 17.6238 12.8755 17.3773L13.9299 14.5152C13.9949 14.3388 14.0432 14.1567 14.0741 13.9713L14.4868 11.4949C14.514 11.3319 14.5276 11.167 14.5276 11.0017V4.25585C14.5276 3.7617 14.127 3.36111 13.6329 3.36111C13.1387 3.36111 12.7381 3.7617 12.7381 4.25585V8.80263C12.7381 9.04971 12.5379 9.25 12.2908 9.25C12.0437 9.25 11.8434 9.04971 11.8434 8.80263V2.47807C11.8434 1.98392 11.4428 1.58333 10.9487 1.58333C10.4545 1.58333 10.0539 1.98392 10.0539 2.47807V8.80263C10.0539 9.04971 9.85364 9.25 9.60657 9.25C9.35949 9.25 9.1592 9.04971 9.1592 8.80263V1.14474C9.1592 0.650587 8.75861 0.25 8.26446 0.25C7.77031 0.25 7.36972 0.650588 7.36972 1.14474V8.80263C7.36972 9.04971 7.16943 9.25 6.92236 9.25C6.67528 9.25 6.47499 9.04971 6.47499 8.80263V2.03363C6.47499 1.53948 6.0744 1.13889 5.58025 1.13889C5.0861 1.13889 4.68551 1.53948 4.68551 2.03363V9.3337C4.68551 9.56361 4.49913 9.75 4.26921 9.75C4.11982 9.75 3.98188 9.66995 3.90776 9.54024L2.35115 6.81618C2.15109 6.46607 1.77876 6.25 1.37552 6.25C0.533085 6.25 -0.00975978 7.14272 0.377852 7.89069Z" fill="black" stroke="white" stroke-width="0.5"/>
</svg>
