<svg width="24" height="21" viewBox="0 0 24 21" fill="none" xmlns="http://www.w3.org/2000/svg">
<path d="M0.25 2.25C0.25 1.14543 1.14543 0.25 2.25 0.25H21.25C22.3546 0.25 23.25 1.14543 23.25 2.25V17.25C23.25 18.3546 22.3546 19.25 21.25 19.25H2.25C1.14543 19.25 0.25 18.3546 0.25 17.25V2.25Z" fill="black"/>
<path d="M6.25 19.25H18.25V20.25H6.25V19.25Z" fill="white"/>
<path d="M0.25 2.25C0.25 1.14543 1.14543 0.25 2.25 0.25H21.25C22.3546 0.25 23.25 1.14543 23.25 2.25V17.25C23.25 18.3546 22.3546 19.25 21.25 19.25H2.25C1.14543 19.25 0.25 18.3546 0.25 17.25V2.25Z" stroke="white" stroke-width="0.5"/>
<path d="M6.25 19.25H18.25V20.25H6.25V19.25Z" stroke="white" stroke-width="0.5"/>
<path d="M17.25 6.25C9.54026 4.63105 6.3165 7.19207 2.75 15.25C8.21876 9.81658 10.5953 9.05725 16.75 9.25L16.25 12.75L20.75 8.75L17.75 3.25L17.25 6.25Z" stroke="white" stroke-width="0.5"/>
</svg>
