<svg width="16" height="26" viewBox="0 0 16 26" fill="none" xmlns="http://www.w3.org/2000/svg">
<path d="M7.63965 0.601562C9.54656 0.621126 11.5192 1.55196 14.0684 3.5L14.5869 3.90332C14.6582 3.96042 14.706 4.05631 14.7061 4.16113V19.0576C14.7061 19.1617 14.6606 19.2561 14.5889 19.3164L8.25488 24.627C8.15024 24.7145 8.00683 24.7183 7.89941 24.6387L0.729492 19.2959C0.650118 19.2367 0.59774 19.1364 0.597656 19.0254V4.14941C0.597716 4.04736 0.644532 3.95281 0.713867 3.89551C3.50968 1.58893 5.61338 0.581059 7.63965 0.601562ZM12.7861 7.43652C12.6694 7.36279 12.5142 7.39791 12.4404 7.51465L6.60742 16.75L3.3291 13.4717C3.23147 13.3741 3.07322 13.3741 2.97559 13.4717C2.87795 13.5693 2.87795 13.7276 2.97559 13.8252L6.69629 17.5459L6.86328 17.2822L12.8633 7.78223C12.937 7.66554 12.9027 7.51029 12.7861 7.43652Z" fill="black" stroke="white" stroke-width="0.5" stroke-linecap="round"/>
</svg>
