<svg width="12" height="19" viewBox="0 0 12 19" fill="none" xmlns="http://www.w3.org/2000/svg">
<path d="M0.25 3.20265C0.25 3.00448 0.338774 2.81468 0.490301 2.69092C4.5544 -0.628453 6.93822 -0.49748 10.9997 2.6909C11.1572 2.81454 11.25 3.00805 11.25 3.21096V13.811C11.25 14.01 11.1622 14.1984 11.011 14.3239L6.4584 18.1023C6.23133 18.2907 5.90871 18.3001 5.67152 18.1251L0.518212 14.3234C0.349775 14.1992 0.25 13.9999 0.25 13.7876V3.20265Z" fill="black"/>
<path d="M0 13.7874V3.2024C7.33058e-05 2.93091 0.121254 2.66953 0.332031 2.49733C2.3769 0.827168 4.04675 -0.0168629 5.74805 0.000255245C7.44641 0.0175042 9.11435 0.89297 11.1543 2.4944C11.3733 2.66644 11.5 2.93325 11.5 3.21119V13.8108C11.5 14.0829 11.38 14.3422 11.1709 14.5159L6.61816 18.2942C6.30287 18.5559 5.85326 18.5695 5.52344 18.3264L0.370117 14.5247C0.13675 14.3525 0 14.0777 0 13.7874ZM7.83008 5.36549C7.92285 5.26344 8.08044 5.25537 8.18262 5.34791C8.28478 5.44079 8.29209 5.59926 8.19922 5.70143L6.33301 7.75416L8.5166 9.98463C8.61319 10.0833 8.61136 10.2416 8.5127 10.3381C8.41403 10.4347 8.25577 10.4339 8.15918 10.3352L5.99609 8.12526L3.99414 10.3284C3.90127 10.4305 3.74279 10.4378 3.64062 10.345C3.53846 10.2521 3.53115 10.0936 3.62402 9.99147L5.64551 7.76686L3.62988 5.70826C3.53345 5.60963 3.53527 5.45131 3.63379 5.35475C3.73245 5.25816 3.89072 5.25999 3.9873 5.35865L5.98242 7.39674L7.83008 5.36549ZM0.5 13.7874C0.5 13.9215 0.563484 14.046 0.666992 14.1223L5.82031 17.9241C5.96481 18.0305 6.16016 18.0245 6.29883 17.9094L10.8516 14.1311C10.9445 14.0538 11 13.9364 11 13.8108V3.21119C11 3.0836 10.9413 2.96323 10.8457 2.88795C8.8242 1.301 7.2681 0.515743 5.74316 0.500255C4.22141 0.484894 2.66735 1.23606 0.648438 2.88502C0.55648 2.96025 0.500074 3.07787 0.5 3.2024V13.7874Z" fill="white"/>
</svg>
