<svg width="41" height="47" viewBox="0 0 41 47" fill="none" xmlns="http://www.w3.org/2000/svg">
<path d="M38.4873 20.4867C40.4899 21.6409 40.4899 24.5317 38.4873 25.6859L5.36523 44.7738C3.50744 45.8444 1.29256 44.678 1.15625 42.6508C1.03294 40.8139 0.958564 38.7684 1.02441 36.8461C1.09081 34.9082 1.29836 33.1626 1.70508 31.891C2.03567 30.8574 2.82587 29.8318 3.9375 28.8539C5.0395 27.8844 6.38754 27.0223 7.7168 26.2992C9.04178 25.5785 10.3219 25.0099 11.2725 24.6215C11.7468 24.4277 12.1373 24.2802 12.4072 24.181C12.5421 24.1315 12.6468 24.0942 12.7168 24.0697C12.7517 24.0575 12.7778 24.0482 12.7949 24.0424C12.8034 24.0395 12.8096 24.0368 12.8135 24.0355C12.8152 24.0349 12.8166 24.0348 12.8174 24.0345L12.8184 24.0345L15.1592 23.2494L12.9316 22.184L12.9307 22.184L12.9072 22.1722C12.8895 22.1637 12.862 22.1508 12.8262 22.1332C12.7543 22.0978 12.6473 22.0439 12.5098 21.974C12.2344 21.8341 11.8368 21.6277 11.3545 21.3636C10.3883 20.8346 9.08814 20.0782 7.74609 19.1693C6.40033 18.2579 5.03431 17.2086 3.9248 16.0941C2.80218 14.9665 2.01616 13.8464 1.71191 12.806C1.02353 10.4515 1.00534 6.75576 1.18945 3.52283C1.30441 1.50422 3.50914 0.329104 5.37207 1.40271L38.4873 20.4867Z" fill="black" stroke="white" stroke-width="2" stroke-linecap="round"/>
</svg>
