<svg width="32" height="22" viewBox="0 0 32 22" fill="none" xmlns="http://www.w3.org/2000/svg">
<path d="M0.969727 13.5H7.75781C8.00274 13.5001 8.22754 13.7093 8.22754 14V21C8.22754 21.2907 8.00274 21.4999 7.75781 21.5H0.969727C0.724712 21.5 0.5 21.2908 0.5 21V14C0.5 13.7092 0.724712 13.5 0.969727 13.5ZM12.6064 13.5H19.3936C19.6386 13.5 19.8633 13.7092 19.8633 14V21C19.8633 21.2908 19.6386 21.5 19.3936 21.5H12.6064C12.3614 21.5 12.1367 21.2908 12.1367 21V14C12.1367 13.7092 12.3614 13.5 12.6064 13.5ZM24.2422 13.5H31.0303C31.2753 13.5 31.5 13.7092 31.5 14V21C31.5 21.2908 31.2753 21.5 31.0303 21.5H24.2422C23.9973 21.4999 23.7725 21.2907 23.7725 21V14C23.7725 13.7093 23.9973 13.5001 24.2422 13.5ZM12.6064 0.5H19.3936C19.6386 0.5 19.8633 0.709242 19.8633 1V8C19.8633 8.29076 19.6386 8.5 19.3936 8.5H12.6064C12.3614 8.5 12.1367 8.29076 12.1367 8V1C12.1367 0.709243 12.3614 0.5 12.6064 0.5Z" fill="black" stroke="#FFFAFA"/>
</svg>
