<svg width="17" height="17" viewBox="0 0 17 17" fill="none" xmlns="http://www.w3.org/2000/svg">
<path d="M10.1846 13.0205C11.2092 13.1917 12.3631 13.5028 13.8623 13.9492C12.5125 15.2786 10.6936 16.1315 8.67578 16.2373C9.29142 15.0944 9.79403 14.0301 10.1846 13.0205ZM6.11035 13.1094C6.54427 14.0895 7.10388 15.1221 7.79102 16.2354C5.82295 16.124 4.04639 15.3016 2.71191 14.0205C4.07386 13.5988 5.15886 13.2992 6.11035 13.1094ZM8.42969 12.8623C8.83903 12.8645 9.24888 12.8924 9.67578 12.9463C9.30054 13.9006 8.82159 14.9119 8.23438 16.002C7.57209 14.9311 7.03423 13.9439 6.61523 13.0137C7.2563 12.9083 7.84423 12.8592 8.42969 12.8623ZM4.97363 8.5C5.00613 9.83263 5.31413 11.1799 5.90918 12.6377C4.94553 12.8358 3.86141 13.1407 2.5293 13.5537C2.46114 13.5748 2.40821 13.6224 2.37891 13.6816C1.11106 12.3119 0.318213 10.4988 0.256836 8.5H4.97363ZM16.2432 8.5C16.1839 10.4314 15.441 12.1888 14.2471 13.541C12.6772 13.07 11.4548 12.7338 10.3613 12.5439C10.8745 11.1105 11.1558 9.78547 11.2148 8.5H16.2432ZM10.7139 8.5C10.6539 9.74703 10.3738 11.0438 9.85645 12.4658C9.36892 12.3996 8.90135 12.3648 8.43262 12.3623C7.77817 12.3589 7.12413 12.4188 6.41211 12.542C5.81164 11.0967 5.50669 9.78469 5.47363 8.5H10.7139ZM8.69824 0.262695C12.8255 0.490649 16.1156 3.84676 16.2432 8H11.2266C11.2266 7.94591 11.2283 7.89188 11.2275 7.83789C11.2068 6.3423 10.8798 4.89781 10.2754 3.39355C11.1309 3.18372 12.0637 2.87785 13.1406 2.47656C13.2697 2.42824 13.3352 2.2845 13.2871 2.15527C13.2389 2.02597 13.0951 1.95977 12.9658 2.00781C11.8626 2.4189 10.9268 2.72484 10.0801 2.92773C9.70577 2.06881 9.24411 1.18691 8.69824 0.262695ZM9.78027 3.50586C10.3861 4.99241 10.7085 6.39827 10.7285 7.84473C10.7292 7.89641 10.7266 7.94817 10.7266 8H5.47559C5.51648 6.59408 5.88039 5.19137 6.55859 3.65234C6.95526 3.70407 7.34549 3.73078 7.73828 3.73047C8.40129 3.72994 9.06724 3.65357 9.78027 3.50586ZM2.65723 2.53027C3.94962 3.03701 5.03128 3.38576 6.04785 3.57129C5.38147 5.11327 5.01564 6.54804 4.97559 8H0.256836C0.322606 5.8582 1.22749 3.92848 2.65723 2.53027ZM8.24707 0.484375C8.77443 1.37498 9.21959 2.21912 9.58105 3.03613C8.93349 3.1648 8.33198 3.23 7.7373 3.23047C7.4185 3.2307 7.10065 3.21133 6.77734 3.1748C7.17757 2.32903 7.66766 1.43932 8.24707 0.484375ZM7.79688 0.263672C7.19062 1.26503 6.67494 2.20269 6.25781 3.10156C5.31267 2.94083 4.2985 2.62625 3.07129 2.1543C4.35953 1.05877 5.99841 0.364104 7.79688 0.263672Z" fill="black" stroke="white" stroke-width="0.5" stroke-linecap="round"/>
</svg>
