<svg width="31" height="30" viewBox="0 0 31 30" fill="none" xmlns="http://www.w3.org/2000/svg">
<path d="M2 18.5H10C10.8284 18.5 11.5 19.1716 11.5 20V28C11.5 28.8284 10.8284 29.5 10 29.5H2C1.17157 29.5 0.5 28.8284 0.5 28V20C0.5 19.1716 1.17157 18.5 2 18.5ZM21 18.5H29C29.8284 18.5 30.5 19.1716 30.5 20V28C30.5 28.8284 29.8284 29.5 29 29.5H21C20.1716 29.5 19.5 28.8284 19.5 28V20C19.5 19.1716 20.1716 18.5 21 18.5ZM2 0.5H10C10.8284 0.5 11.5 1.17157 11.5 2V10C11.5 10.8284 10.8284 11.5 10 11.5H2C1.17157 11.5 0.5 10.8284 0.5 10V2C0.5 1.17157 1.17157 0.5 2 0.5ZM21 0.5H29C29.8284 0.5 30.5 1.17157 30.5 2V10C30.5 10.8284 29.8284 11.5 29 11.5H21C20.1716 11.5 19.5 10.8284 19.5 10V2C19.5 1.17157 20.1716 0.5 21 0.5Z" fill="black" stroke="white"/>
</svg>
