<svg width="13" height="21" viewBox="0 0 13 21" fill="none" xmlns="http://www.w3.org/2000/svg">
<path d="M0 5.25H13V18.375C13 19.8247 11.8359 21 10.4 21H2.6C1.16406 21 0 19.8247 0 18.375V5.25Z" fill="#FF0606"/>
<path d="M12.1333 4.375H0.866667C0.38802 4.375 0 3.98325 0 3.5C0 3.01675 0.38802 2.625 0.866667 2.625H5.2V0.875C5.2 0.391751 5.58802 0 6.06667 0H7.36667C7.84531 0 8.23333 0.391751 8.23333 0.875V2.625H12.1333C12.612 2.625 13 3.01675 13 3.5C13 3.98325 12.612 4.375 12.1333 4.375Z" fill="#FF0000"/>
</svg>
