<svg width="22" height="22" viewBox="0 0 22 22" fill="none" xmlns="http://www.w3.org/2000/svg">
<path d="M18.5923 3.5C18.5923 5.15686 17.2905 6.5 15.6846 6.5C14.0787 6.5 12.7769 5.15686 12.7769 3.5C12.7769 1.84315 14.0787 0.5 15.6846 0.5C17.2905 0.5 18.5923 1.84315 18.5923 3.5Z" fill="black"/>
<path d="M10.3418 9.73259C10.3418 8.07573 11.1711 6.73259 12.7769 6.73259H18.5923C20.1982 6.73259 21.5 8.07573 21.5 9.73259V18.7326C21.5 18.7326 12.2803 18.9064 11.9572 18.7326C11.6341 18.5588 12.9265 9.73259 10.3418 9.73259Z" fill="black"/>
<path d="M9.22308 6.5C9.22308 8.15685 7.92126 9.5 6.31538 9.5C4.70951 9.5 3.40769 8.15685 3.40769 6.5C3.40769 4.84314 4.70951 3.5 6.31538 3.5C7.92126 3.5 9.22308 4.84314 9.22308 6.5Z" fill="black"/>
<path d="M0.5 12.5C0.5 10.8431 1.80182 9.5 3.40769 9.5H9.22308C10.829 9.5 12.1308 10.8431 12.1308 12.5V14.75C12.1475 15.7118 12.139 16.1622 12.1308 17V21.5H0.5V12.5Z" fill="black"/>
<path d="M18.5923 3.5C18.5923 5.15686 17.2905 6.5 15.6846 6.5C14.0787 6.5 12.7769 5.15686 12.7769 3.5C12.7769 1.84315 14.0787 0.5 15.6846 0.5C17.2905 0.5 18.5923 1.84315 18.5923 3.5Z" stroke="white"/>
<path d="M10.3418 9.73259C10.3418 8.07573 11.1711 6.73259 12.7769 6.73259H18.5923C20.1982 6.73259 21.5 8.07573 21.5 9.73259V18.7326C21.5 18.7326 12.2803 18.9064 11.9572 18.7326C11.6341 18.5588 12.9265 9.73259 10.3418 9.73259Z" stroke="white"/>
<path d="M9.22308 6.5C9.22308 8.15685 7.92126 9.5 6.31538 9.5C4.70951 9.5 3.40769 8.15685 3.40769 6.5C3.40769 4.84314 4.70951 3.5 6.31538 3.5C7.92126 3.5 9.22308 4.84314 9.22308 6.5Z" stroke="white"/>
<path d="M0.5 12.5C0.5 10.8431 1.80182 9.5 3.40769 9.5H9.22308C10.829 9.5 12.1308 10.8431 12.1308 12.5V14.75C12.1475 15.7118 12.139 16.1622 12.1308 17V21.5H0.5V12.5Z" stroke="white"/>
</svg>
