<svg width="36" height="22" viewBox="0 0 36 22" fill="none" xmlns="http://www.w3.org/2000/svg">
<path d="M0.5 19.5V2.5C0.5 1.39543 1.39543 0.500001 2.5 0.500001H23.2059C24.3105 0.500001 25.2059 1.39543 25.2059 2.5V5.44117L32.6345 1.87541C33.9622 1.23813 35.5 2.20575 35.5 3.67846V18.0359C35.5 19.5755 33.8333 20.5377 32.5 19.7679L25.2059 15.5567V19.5C25.2059 20.6046 24.3105 21.5 23.2059 21.5H2.5C1.39543 21.5 0.5 20.6046 0.5 19.5Z" fill="black"/>
<path d="M25.2059 5.44117V2.5C25.2059 1.39543 24.3105 0.500001 23.2059 0.500001H2.5C1.39543 0.500001 0.5 1.39543 0.5 2.5V19.5C0.5 20.6046 1.39543 21.5 2.5 21.5H23.2059C24.3105 21.5 25.2059 20.6046 25.2059 19.5V15.5567M25.2059 5.44117L32.6345 1.87541C33.9622 1.23813 35.5 2.20575 35.5 3.67846V18.0359C35.5 19.5755 33.8333 20.5377 32.5 19.7679L25.2059 15.5567M25.2059 5.44117V15.5567" stroke="white"/>
</svg>
