<svg width="33" height="27" viewBox="0 0 33 27" fill="none" xmlns="http://www.w3.org/2000/svg">
<path d="M16.1123 0.788345C16.7485 0.168501 17.8203 0.614941 17.8203 1.50319V24.7219C17.8203 25.6086 16.7496 26.0551 16.1123 25.4387C10.4006 19.9107 6.70556 16.9962 1.59082 17.052C1.00398 17.0582 0.5 16.6018 0.5 16.0149V9.17213C0.500017 8.59532 0.989701 8.14055 1.56641 8.14967C7.8101 8.25061 11.2133 5.56123 16.1123 0.788345ZM26.9531 1.77077C27.4155 1.46883 28.0349 1.59846 28.3369 2.06081C30.8287 5.87553 32.1688 9.04495 32.1641 12.3801C32.1592 15.7025 30.8192 19.0179 28.3574 23.1223C28.0732 23.5956 27.4588 23.7491 26.9854 23.4651C26.512 23.1811 26.3579 22.5666 26.6416 22.093C29.0481 18.0807 30.16 15.1487 30.1641 12.3772C30.168 9.61846 29.0736 6.84635 26.6621 3.15456C26.3603 2.69232 26.4911 2.07286 26.9531 1.77077ZM22.959 6.76686C23.4234 6.46824 24.043 6.60225 24.3418 7.06667C25.8123 9.35278 26.6052 11.269 26.5771 13.2366C26.549 15.1989 25.7058 17.0322 24.3408 19.1497C24.0417 19.6134 23.423 19.747 22.959 19.4485C22.4948 19.1493 22.3609 18.5299 22.6602 18.0657C23.9688 16.0355 24.5572 14.595 24.5771 13.2083C24.5968 11.8266 24.0529 10.3155 22.6592 8.1487C22.3606 7.68437 22.4949 7.06573 22.959 6.76686Z" fill="black"/>
<path d="M16.1123 0.788345L16.4612 1.14648L16.4612 1.14648L16.1123 0.788345ZM16.1123 25.4387L15.7646 25.798L15.7647 25.7981L16.1123 25.4387ZM1.59082 17.052L1.59607 17.552L1.59628 17.552L1.59082 17.052ZM0.5 9.17213L0 9.17212V9.17213H0.5ZM1.56641 8.14967L1.57449 7.64974L1.57432 7.64974L1.56641 8.14967ZM26.9531 1.77077L26.6797 1.35212L26.6795 1.35229L26.9531 1.77077ZM28.3369 2.06081L28.7555 1.78737V1.78737L28.3369 2.06081ZM32.1641 12.3801L32.6641 12.3809V12.3809L32.1641 12.3801ZM28.3574 23.1223L28.7861 23.3798L28.7862 23.3795L28.3574 23.1223ZM26.9854 23.4651L26.7281 23.8939L26.7282 23.8939L26.9854 23.4651ZM26.6416 22.093L26.2128 21.8359L26.2127 21.836L26.6416 22.093ZM30.1641 12.3772L30.6641 12.3779V12.3779L30.1641 12.3772ZM26.6621 3.15456L26.2435 3.42792L26.2435 3.42799L26.6621 3.15456ZM22.959 6.76686L22.6886 6.34629L22.6883 6.34649L22.959 6.76686ZM24.3418 7.06667L24.7623 6.79617L24.7623 6.79616L24.3418 7.06667ZM26.5771 13.2366L27.0771 13.2437V13.2437L26.5771 13.2366ZM24.3408 19.1497L24.761 19.4207L24.7611 19.4206L24.3408 19.1497ZM22.959 19.4485L22.6881 19.8688L22.6885 19.869L22.959 19.4485ZM22.6602 18.0657L23.0804 18.3366L23.0804 18.3366L22.6602 18.0657ZM24.5771 13.2083L25.0771 13.2155V13.2154L24.5771 13.2083ZM22.6592 8.1487L22.2386 8.41914L22.2387 8.41919L22.6592 8.1487ZM16.1123 0.788345L16.4612 1.14648C16.7849 0.831106 17.3203 1.06325 17.3203 1.50319H17.8203H18.3203C18.3203 0.166631 16.7121 -0.494103 15.7634 0.430212L16.1123 0.788345ZM17.8203 1.50319H17.3203V24.7219H17.8203H18.3203V1.50319H17.8203ZM17.8203 24.7219H17.3203C17.3203 25.1594 16.7855 25.3942 16.4599 25.0793L16.1123 25.4387L15.7647 25.7981C16.7136 26.716 18.3203 26.0578 18.3203 24.7219H17.8203ZM16.1123 25.4387L16.46 25.0795C10.764 19.5666 6.93096 16.4937 1.58536 16.552L1.59082 17.052L1.59628 17.552C6.48017 17.4987 10.0372 20.2548 15.7646 25.798L16.1123 25.4387ZM1.59082 17.052L1.58557 16.552C1.25045 16.5556 1 16.2979 1 16.0149H0.5H0C0 16.9058 0.757513 17.5608 1.59607 17.552L1.59082 17.052ZM0.5 16.0149H1V9.17213H0.5H0V16.0149H0.5ZM0.5 9.17213L1 9.17215C1.00001 8.89158 1.24367 8.64463 1.5585 8.64961L1.56641 8.14967L1.57432 7.64974C0.735734 7.63647 2.61366e-05 8.29906 0 9.17212L0.5 9.17213ZM1.56641 8.14967L1.55832 8.64961C4.76388 8.70143 7.26335 8.0346 9.58789 6.73295C11.8947 5.44124 14.0114 3.53318 16.4612 1.14648L16.1123 0.788345L15.7634 0.430211C13.3141 2.81639 11.2798 4.63946 9.09932 5.86043C6.93659 7.07146 4.61262 7.69885 1.57449 7.64974L1.56641 8.14967ZM26.9531 1.77077L27.2265 2.18941C27.458 2.03828 27.7675 2.10333 27.9183 2.33424L28.3369 2.06081L28.7555 1.78737C28.3023 1.09359 27.373 0.899392 26.6797 1.35212L26.9531 1.77077ZM28.3369 2.06081L27.9183 2.33424C30.39 6.11822 31.6686 9.18833 31.6641 12.3794L32.1641 12.3801L32.6641 12.3809C32.669 8.90157 31.2674 5.63284 28.7555 1.78737L28.3369 2.06081ZM32.1641 12.3801L31.6641 12.3794C31.6594 15.5641 30.3765 18.7838 27.9286 22.8652L28.3574 23.1223L28.7862 23.3795C31.2619 19.2519 32.659 15.8409 32.6641 12.3809L32.1641 12.3801ZM28.3574 23.1223L27.9288 22.8649C27.7867 23.1015 27.4793 23.1783 27.2425 23.0363L26.9854 23.4651L26.7282 23.8939C27.4383 24.3198 28.3597 24.0896 28.7861 23.3798L28.3574 23.1223ZM26.9854 23.4651L27.2426 23.0364C27.0057 22.8942 26.9288 22.5866 27.0705 22.35L26.6416 22.093L26.2127 21.836C25.787 22.5466 26.0182 23.4679 26.7281 23.8939L26.9854 23.4651ZM26.6416 22.093L27.0704 22.3502C29.4906 18.315 30.6598 15.2872 30.6641 12.3779L30.1641 12.3772L29.6641 12.3765C29.6602 15.0102 28.6056 17.8465 26.2128 21.8359L26.6416 22.093ZM30.1641 12.3772L30.6641 12.3779C30.6682 9.47503 29.5122 6.60359 27.0807 2.88112L26.6621 3.15456L26.2435 3.42799C28.6349 7.08912 29.6678 9.76189 29.6641 12.3765L30.1641 12.3772ZM26.6621 3.15456L27.0808 2.88119C26.9303 2.6508 26.995 2.34076 27.2268 2.18925L26.9531 1.77077L26.6795 1.35229C25.9872 1.80496 25.7902 2.73385 26.2435 3.42792L26.6621 3.15456ZM22.959 6.76686L23.2294 7.18743C23.462 7.03786 23.7722 7.10538 23.9213 7.33717L24.3418 7.06667L24.7623 6.79616C24.3139 6.09913 23.3849 5.89862 22.6886 6.34629L22.959 6.76686ZM24.3418 7.06667L23.9213 7.33716C25.3725 9.59331 26.1031 11.4083 26.0772 13.2295L26.5771 13.2366L27.0771 13.2437C27.1072 11.1297 26.2521 9.11226 24.7623 6.79617L24.3418 7.06667ZM26.5771 13.2366L26.0772 13.2294C26.0512 15.048 25.2714 16.7832 23.9206 18.8788L24.3408 19.1497L24.7611 19.4206C26.1401 17.2812 27.0469 15.3498 27.0771 13.2437L26.5771 13.2366ZM24.3408 19.1497L23.9206 18.8787C23.7712 19.1103 23.4617 19.1774 23.2295 19.028L22.959 19.4485L22.6885 19.869C23.3843 20.3166 24.3122 20.1165 24.761 19.4207L24.3408 19.1497ZM22.959 19.4485L23.2299 19.0282C22.9978 18.8786 22.9308 18.5687 23.0804 18.3366L22.6602 18.0657L22.2399 17.7948C21.7911 18.4911 21.9918 19.4199 22.6881 19.8688L22.959 19.4485ZM22.6602 18.0657L23.0804 18.3366C24.4031 16.2847 25.0551 14.746 25.0771 13.2155L24.5771 13.2083L24.0772 13.2011C24.0593 14.444 23.5345 15.7864 22.2399 17.7948L22.6602 18.0657ZM24.5771 13.2083L25.0771 13.2154C25.0989 11.6872 24.4927 10.0748 23.0797 7.8782L22.6592 8.1487L22.2387 8.41919C23.6132 10.5561 24.0948 11.9659 24.0772 13.2012L24.5771 13.2083ZM22.6592 8.1487L23.0797 7.87825C22.9305 7.64617 22.9976 7.33672 23.2297 7.18723L22.959 6.76686L22.6883 6.34649C21.9922 6.79475 21.7907 7.72258 22.2386 8.41914L22.6592 8.1487Z" fill="white"/>
</svg>
