<svg width="16" height="14" viewBox="0 0 16 14" fill="none" xmlns="http://www.w3.org/2000/svg">
<path d="M0.25 1.25C0.25 0.697715 0.697715 0.25 1.25 0.25H14.25C14.8023 0.25 15.25 0.697715 15.25 1.25V8.25C15.25 8.80229 14.8023 9.25 14.25 9.25H1.25C0.697715 9.25 0.25 8.80229 0.25 8.25V1.25Z" fill="black"/>
<path d="M15 1.25C15 0.835786 14.6642 0.5 14.25 0.5H1.25C0.835786 0.5 0.5 0.835786 0.5 1.25V8.25C0.5 8.66421 0.835786 9 1.25 9H14.25C14.6642 9 15 8.66421 15 8.25V1.25ZM15.5 8.25C15.5 8.94036 14.9404 9.5 14.25 9.5H1.25C0.559644 9.5 0 8.94036 0 8.25V1.25C0 0.559644 0.559644 0 1.25 0H14.25C14.9404 0 15.5 0.559644 15.5 1.25V8.25Z" fill="white"/>
<path d="M2.11358 13.5598C2.03966 13.6762 1.8852 13.7111 1.76862 13.6373C1.65205 13.5635 1.61747 13.409 1.69111 13.2923L4.1163 9.46123C4.19015 9.34457 4.34459 9.30987 4.46125 9.38372C4.57791 9.45757 4.61262 9.61201 4.53877 9.72867L2.11358 13.5598Z" fill="black"/>
<path d="M13.3864 13.5598C13.4603 13.6762 13.6148 13.7111 13.7314 13.6373C13.848 13.5635 13.8825 13.409 13.8089 13.2923L11.3837 9.46123C11.3098 9.34457 11.1554 9.30987 11.0387 9.38372C10.9221 9.45757 10.8874 9.61201 10.9612 9.72867L13.3864 13.5598Z" fill="black"/>
</svg>
